<svg width="486" height="409" viewBox="0 0 486 409" fill="none" xmlns="http://www.w3.org/2000/svg">
<path d="M323.776 405.973C323.776 407.154 323.186 407.744 322.005 407.744H309.445C308.264 407.744 307.674 407.154 307.674 405.973V392.125C307.674 390.944 308.264 390.354 309.445 390.354H322.005C323.186 390.354 323.776 390.944 323.776 392.125V405.973ZM324.259 295.027C325.44 295.027 326.03 295.617 326.03 296.798C326.03 299.16 325.923 302.327 325.708 306.299C325.601 310.271 325.44 314.672 325.225 319.503C325.011 324.226 324.742 329.218 324.42 334.478C324.205 339.738 323.991 344.784 323.776 349.614C323.561 354.445 323.347 358.954 323.132 363.14C323.025 367.22 322.971 370.548 322.971 373.124V378.76C322.971 379.941 322.381 380.531 321.2 380.531H308.64C307.459 380.531 306.868 379.941 306.868 378.76V373.124C306.868 370.548 306.761 367.22 306.546 363.14C306.439 358.954 306.278 354.445 306.063 349.614C305.849 344.784 305.58 339.738 305.258 334.478C305.044 329.218 304.829 324.226 304.614 319.503C304.399 314.672 304.185 310.271 303.97 306.299C303.863 302.327 303.809 299.16 303.809 296.798C303.809 295.617 304.399 295.027 305.58 295.027H324.259Z" fill="white"/>
<path d="M290.472 308.553V333.673H295.624C296.805 333.673 297.396 334.263 297.396 335.444V346.394C297.396 347.575 296.805 348.165 295.624 348.165H278.717V349.615H281.454C283.709 349.615 285.426 350.098 286.607 351.064C287.895 351.923 288.808 352.996 289.344 354.284C289.988 355.572 290.311 357.022 290.311 358.632C290.418 360.135 290.472 361.53 290.472 362.819V394.218H298.04C299.221 394.218 299.811 394.809 299.811 395.99V405.973C299.811 407.154 299.221 407.745 298.04 407.745H276.14C274.959 407.745 274.369 407.154 274.369 405.973V296.798C274.369 295.617 274.959 295.027 276.14 295.027H298.04C299.221 295.027 299.811 295.617 299.811 296.798V306.782C299.811 307.963 299.221 308.553 298.04 308.553H290.472ZM287.895 284.077L279.039 289.874C278.609 290.089 278.126 290.143 277.59 290.035C277.16 289.928 276.784 289.713 276.462 289.391L274.53 287.137C274.101 286.707 273.993 286.332 274.208 286.01C274.423 285.58 274.691 285.151 275.013 284.721L286.607 272.967C287.036 272.537 287.466 272.323 287.895 272.323C288.325 272.323 288.754 272.537 289.183 272.967L300.777 284.721C301.099 285.151 301.368 285.58 301.582 286.01C301.797 286.332 301.69 286.707 301.26 287.137L299.328 289.391C299.006 289.713 298.576 289.928 298.04 290.035C297.61 290.143 297.181 290.089 296.752 289.874L287.895 284.077Z" fill="white"/>
<path d="M253.552 394.219H255.484V363.463C255.484 362.282 256.074 361.692 257.255 361.692H269.815C270.996 361.692 271.586 362.282 271.586 363.463V395.99C271.586 398.03 271.05 399.854 269.976 401.465C269.01 403.075 267.722 404.417 266.111 405.49C264.501 406.564 262.623 407.369 260.476 407.906C258.436 408.442 256.343 408.711 254.196 408.711C252.156 408.711 250.116 408.442 248.077 407.906C246.037 407.369 244.212 406.618 242.602 405.651C241.099 404.578 239.864 403.236 238.898 401.626C237.932 400.016 237.449 398.137 237.449 395.99V306.782C237.449 304.635 237.932 302.81 238.898 301.307C239.972 299.697 241.314 298.355 242.924 297.282C244.534 296.208 246.359 295.403 248.399 294.866C250.546 294.329 252.693 294.061 254.84 294.061C256.987 294.061 259.026 294.329 260.959 294.866C262.998 295.403 264.77 296.208 266.273 297.282C267.883 298.248 269.171 299.536 270.137 301.146C271.103 302.756 271.586 304.635 271.586 306.782V333.673C271.586 334.854 270.996 335.444 269.815 335.444H257.255C256.074 335.444 255.484 334.854 255.484 333.673V308.553H241.797V310.003H244.534C246.788 310.003 248.506 310.486 249.687 311.452C250.975 312.311 251.888 313.384 252.424 314.672C253.068 315.96 253.391 317.41 253.391 319.02C253.498 320.523 253.552 321.918 253.552 323.207V394.219Z" fill="white"/>
<path d="M199.08 306.782C199.08 304.635 199.563 302.81 200.529 301.307C201.603 299.697 202.944 298.355 204.555 297.282C206.165 296.208 207.99 295.403 210.03 294.866C212.177 294.329 214.324 294.061 216.471 294.061C218.618 294.061 220.657 294.329 222.589 294.866C224.629 295.403 226.4 296.208 227.903 297.282C229.514 298.248 230.802 299.536 231.768 301.146C232.734 302.756 233.217 304.635 233.217 306.782V395.99C233.217 398.03 232.68 399.854 231.607 401.465C230.641 403.075 229.353 404.417 227.742 405.49C226.132 406.564 224.253 407.369 222.106 407.906C220.067 408.442 217.973 408.711 215.826 408.711C213.787 408.711 211.747 408.442 209.707 407.906C207.668 407.369 205.843 406.618 204.233 405.651C202.73 404.578 201.495 403.236 200.529 401.626C199.563 400.016 199.08 398.137 199.08 395.99V306.782ZM215.182 394.219H217.115V308.392H203.427V309.841H206.165C208.419 309.841 210.137 310.325 211.318 311.291C212.606 312.15 213.518 313.223 214.055 314.511C214.699 315.799 215.021 317.249 215.021 318.859C215.129 320.362 215.182 321.757 215.182 323.046V394.219Z" fill="white"/>
<path d="M189.455 392.769C187.2 392.769 185.429 392.34 184.141 391.481C182.96 390.515 182.048 389.388 181.403 388.099C180.867 386.811 180.545 385.416 180.437 383.913C180.437 382.302 180.437 380.853 180.437 379.565V296.798C180.437 295.617 181.028 295.027 182.209 295.027H194.769C195.949 295.027 196.54 295.617 196.54 296.798L192.031 405.49C192.031 406.027 191.816 406.564 191.387 407.1C190.958 407.53 190.206 407.744 189.133 407.744H169.81C168.736 407.744 167.985 407.53 167.555 407.1C167.126 406.564 166.911 406.027 166.911 405.49L162.403 296.798C162.403 295.617 162.993 295.027 164.174 295.027H176.734C177.915 295.027 178.505 295.617 178.505 296.798V394.218H189.455V392.769Z" fill="white"/>
<path d="M126.298 355.089H128.23V308.553H126.298V355.089ZM114.543 369.743V371.192H117.28C119.535 371.192 121.252 371.675 122.433 372.641C123.721 373.5 124.634 374.573 125.171 375.861C125.815 377.15 126.137 378.599 126.137 380.209C126.244 381.712 126.298 383.108 126.298 384.396V405.973C126.298 407.154 125.707 407.744 124.526 407.744H111.966C110.786 407.744 110.195 407.154 110.195 405.973L114.704 297.281C114.704 296.744 114.919 296.261 115.348 295.832C115.777 295.295 116.529 295.027 117.602 295.027H136.925C137.999 295.027 138.75 295.295 139.18 295.832C139.609 296.261 139.824 296.744 139.824 297.281L144.333 405.973C144.333 407.154 143.742 407.744 142.561 407.744H130.001C128.82 407.744 128.23 407.154 128.23 405.973V369.743H114.543Z" fill="white"/>
<path d="M89.5387 332.385H91.471V308.392H89.5387V332.385ZM77.7839 345.75V347.199H80.5213C82.7757 347.199 84.4933 347.682 85.6741 348.648C86.9623 349.507 87.8748 350.581 88.4115 351.869C89.0556 353.157 89.3777 354.606 89.3777 356.216C89.4851 357.719 89.5387 359.115 89.5387 360.403V405.973C89.5387 407.154 88.9483 407.744 87.7674 407.744H75.2075C74.0266 407.744 73.4362 407.154 73.4362 405.973V296.798C73.4362 295.617 74.0266 295.027 75.2075 295.027H90.1828C92.3298 295.027 94.4232 295.295 96.4628 295.832C98.6098 296.369 100.488 297.174 102.099 298.247C103.709 299.214 104.997 300.502 105.963 302.112C107.037 303.722 107.574 305.601 107.574 307.748V330.452C107.574 331.526 107.198 332.546 106.446 333.512L101.938 338.987L106.446 344.462C107.198 345.428 107.574 346.448 107.574 347.521V405.973C107.574 407.154 106.983 407.744 105.802 407.744H93.2423C92.0614 407.744 91.471 407.154 91.471 405.973V345.75H77.7839Z" fill="white"/>
<path d="M52.8615 355.089H54.7938V308.553H52.8615V355.089ZM41.1066 369.743V371.192H43.8441C46.0984 371.192 47.816 371.675 48.9969 372.641C50.2851 373.5 51.1976 374.573 51.7343 375.861C52.3784 377.15 52.7005 378.599 52.7005 380.209C52.8078 381.712 52.8615 383.108 52.8615 384.396V405.973C52.8615 407.154 52.271 407.744 51.0902 407.744H38.5302C37.3494 407.744 36.759 407.154 36.759 405.973L41.2677 297.281C41.2677 296.744 41.4824 296.261 41.9118 295.832C42.3412 295.295 43.0926 295.027 44.1661 295.027H63.4891C64.5626 295.027 65.3141 295.295 65.7435 295.832C66.1729 296.261 66.3876 296.744 66.3876 297.281L70.8963 405.973C70.8963 407.154 70.3059 407.744 69.125 407.744H56.5651C55.3842 407.744 54.7938 407.154 54.7938 405.973V369.743H41.1066Z" fill="white"/>
<path d="M34.1373 356.86C34.1373 359.007 33.6006 360.886 32.5271 362.496C31.5609 364.107 30.2727 365.448 28.6625 366.522C27.0522 367.488 25.1736 368.24 23.0266 368.776C20.9869 369.313 18.8936 369.581 16.7466 369.581H16.1025V405.973C16.1025 407.154 15.5121 407.744 14.3312 407.744H1.77128C0.590425 407.744 0 407.154 0 405.973V296.798C0 295.617 0.590425 295.027 1.77128 295.027H16.7466C18.8936 295.027 20.9869 295.295 23.0266 295.832C25.1736 296.369 27.0522 297.174 28.6625 298.247C30.2727 299.214 31.5609 300.502 32.5271 302.112C33.6006 303.722 34.1373 305.601 34.1373 307.748V356.86ZM4.34768 308.392V309.841H7.0851C9.33945 309.841 11.0571 310.324 12.2379 311.29C13.5261 312.149 14.4386 313.223 14.9753 314.511C15.6194 315.799 15.9415 317.248 15.9415 318.859C16.0488 320.361 16.1025 321.757 16.1025 323.045V356.055H18.0348V308.392H4.34768Z" fill="white"/>
<path d="M429.453 160.396C429.453 158.249 429.936 156.424 430.902 154.921C431.975 153.31 433.317 151.969 434.927 150.895C436.538 149.822 438.363 149.016 440.402 148.48C442.549 147.943 444.696 147.675 446.843 147.675C448.99 147.675 451.03 147.943 452.962 148.48C455.002 149.016 456.773 149.822 458.276 150.895C459.886 151.861 461.174 153.149 462.141 154.76C463.107 156.37 463.59 158.249 463.59 160.396V249.603C463.59 251.643 463.053 253.468 461.98 255.078C461.013 256.689 459.725 258.03 458.115 259.104C456.505 260.177 454.626 260.983 452.479 261.519C450.439 262.056 448.346 262.324 446.199 262.324C444.159 262.324 442.12 262.056 440.08 261.519C438.041 260.983 436.216 260.231 434.605 259.265C433.102 258.191 431.868 256.85 430.902 255.239C429.936 253.629 429.453 251.75 429.453 249.603V160.396ZM445.555 247.832H447.487V162.006H433.8V163.455H436.538C438.792 163.455 440.51 163.938 441.69 164.904C442.979 165.763 443.891 166.837 444.428 168.125C445.072 169.413 445.394 170.862 445.394 172.472C445.501 173.975 445.555 175.371 445.555 176.659V247.832Z" fill="white"/>
<path d="M425.221 248.638C425.221 250.785 424.684 252.663 423.61 254.274C422.644 255.884 421.356 257.226 419.746 258.299C418.136 259.265 416.257 260.017 414.11 260.554C412.07 261.09 409.977 261.359 407.83 261.359H392.855C391.674 261.359 391.083 260.768 391.083 259.587V150.412C391.083 149.232 391.674 148.641 392.855 148.641H407.83C409.977 148.641 412.07 148.909 414.11 149.446C416.257 149.983 418.136 150.788 419.746 151.862C421.356 152.828 422.644 154.116 423.61 155.726C424.684 157.336 425.221 159.215 425.221 161.362V248.638ZM395.431 162.167V163.616H398.168C400.423 163.616 402.14 164.1 403.321 165.066C404.609 165.924 405.522 166.998 406.059 168.286C406.703 169.574 407.025 171.024 407.025 172.634C407.132 174.137 407.186 175.532 407.186 176.82V247.833H409.118V162.167H395.431Z" fill="white"/>
<path d="M370.509 208.703H372.441V162.167H370.509V208.703ZM358.754 223.357V224.806H361.491C363.745 224.806 365.463 225.289 366.644 226.255C367.932 227.114 368.845 228.187 369.381 229.476C370.025 230.764 370.348 232.213 370.348 233.823C370.455 235.326 370.509 236.722 370.509 238.01V259.587C370.509 260.768 369.918 261.359 368.737 261.359H356.177C354.996 261.359 354.406 260.768 354.406 259.587L358.915 150.895C358.915 150.359 359.129 149.876 359.559 149.446C359.988 148.909 360.74 148.641 361.813 148.641H381.136C382.21 148.641 382.961 148.909 383.391 149.446C383.82 149.876 384.035 150.359 384.035 150.895L388.543 259.587C388.543 260.768 387.953 261.359 386.772 261.359H374.212C373.031 261.359 372.441 260.768 372.441 259.587V223.357H358.754Z" fill="white"/>
<path d="M350.701 247.833C351.882 247.833 352.472 248.423 352.472 249.604V259.587C352.472 260.768 351.882 261.359 350.701 261.359H322.844C322.307 261.359 321.824 261.198 321.395 260.876C321.073 260.554 320.965 260.124 321.073 259.587L335.082 162.167H325.742C324.561 162.167 323.971 161.577 323.971 160.396V150.412C323.971 149.232 324.561 148.641 325.742 148.641H351.828C353.009 148.641 353.492 149.232 353.278 150.412L340.074 239.62C339.751 241.445 338.946 243.055 337.658 244.451C336.477 245.739 334.438 246.383 331.539 246.383V247.833H350.701Z" fill="white"/>
<path d="M302.236 150.412C302.236 149.232 302.827 148.641 304.008 148.641H316.568C317.749 148.641 318.339 149.232 318.339 150.412V259.587C318.339 260.768 317.749 261.359 316.568 261.359H304.008C302.827 261.359 302.236 260.768 302.236 259.587V150.412Z" fill="white"/>
<path d="M297.916 247.833C299.097 247.833 299.688 248.423 299.688 249.604V259.587C299.688 260.768 299.097 261.359 297.916 261.359H276.017C274.836 261.359 274.246 260.768 274.246 259.587V150.412C274.246 149.232 274.836 148.641 276.017 148.641H288.577C289.758 148.641 290.348 149.232 290.348 150.412V233.179C290.348 234.467 290.295 235.917 290.187 237.527C290.187 239.03 289.865 240.425 289.221 241.714C288.684 243.002 287.772 244.129 286.484 245.095C285.303 245.954 283.585 246.383 281.331 246.383H278.593V247.833H297.916Z" fill="white"/>
<path d="M253.671 208.703H255.603V162.167H253.671V208.703ZM241.916 223.357V224.806H244.654C246.908 224.806 248.626 225.289 249.806 226.255C251.095 227.114 252.007 228.187 252.544 229.476C253.188 230.764 253.51 232.213 253.51 233.823C253.617 235.326 253.671 236.722 253.671 238.01V259.587C253.671 260.768 253.081 261.359 251.9 261.359H239.34C238.159 261.359 237.569 260.768 237.569 259.587L242.077 150.895C242.077 150.359 242.292 149.876 242.721 149.446C243.151 148.909 243.902 148.641 244.976 148.641H264.299C265.372 148.641 266.124 148.909 266.553 149.446C266.982 149.876 267.197 150.359 267.197 150.895L271.706 259.587C271.706 260.768 271.115 261.359 269.935 261.359H257.375C256.194 261.359 255.603 260.768 255.603 259.587V223.357H241.916Z" fill="white"/>
<path d="M218.893 150.412C218.893 149.232 219.484 148.641 220.665 148.641H233.225C234.406 148.641 234.996 149.232 234.996 150.412V259.587C234.996 260.768 234.406 261.359 233.225 261.359H220.665C219.484 261.359 218.893 260.768 218.893 259.587V150.412Z" fill="white"/>
<path d="M196.627 247.832H198.559V217.076C198.559 215.896 199.149 215.305 200.33 215.305H212.89C214.071 215.305 214.661 215.896 214.661 217.076V249.603C214.661 251.643 214.125 253.468 213.051 255.078C212.085 256.689 210.797 258.03 209.187 259.104C207.576 260.177 205.698 260.983 203.551 261.519C201.511 262.056 199.418 262.324 197.271 262.324C195.231 262.324 193.191 262.056 191.152 261.519C189.112 260.983 187.287 260.231 185.677 259.265C184.174 258.191 182.94 256.85 181.973 255.239C181.007 253.629 180.524 251.75 180.524 249.603V160.396C180.524 158.249 181.007 156.424 181.973 154.921C183.047 153.31 184.389 151.969 185.999 150.895C187.609 149.822 189.434 149.016 191.474 148.48C193.621 147.943 195.768 147.675 197.915 147.675C200.062 147.675 202.102 147.943 204.034 148.48C206.073 149.016 207.845 149.822 209.348 150.895C210.958 151.861 212.246 153.149 213.212 154.76C214.178 156.37 214.661 158.249 214.661 160.396V187.287C214.661 188.468 214.071 189.058 212.89 189.058H200.33C199.149 189.058 198.559 188.468 198.559 187.287V162.167H184.872V163.616H187.609C189.864 163.616 191.581 164.099 192.762 165.065C194.05 165.924 194.963 166.998 195.5 168.286C196.144 169.574 196.466 171.023 196.466 172.633C196.573 174.136 196.627 175.532 196.627 176.82V247.832Z" fill="white"/>
<path d="M167.85 162.167V187.287H173.003C174.183 187.287 174.774 187.878 174.774 189.058V200.008C174.774 201.189 174.183 201.779 173.003 201.779H156.095V203.229H158.832C161.087 203.229 162.804 203.712 163.985 204.678C165.273 205.537 166.186 206.61 166.723 207.898C167.367 209.187 167.689 210.636 167.689 212.246C167.796 213.749 167.85 215.144 167.85 216.433V247.833H175.418C176.599 247.833 177.189 248.423 177.189 249.604V259.587C177.189 260.768 176.599 261.359 175.418 261.359H153.519C152.338 261.359 151.747 260.768 151.747 259.587V150.412C151.747 149.232 152.338 148.641 153.519 148.641H175.418C176.599 148.641 177.189 149.232 177.189 150.412V160.396C177.189 161.577 176.599 162.167 175.418 162.167H167.85Z" fill="white"/>
<path d="M147.515 210.475C147.515 212.622 146.979 214.5 145.905 216.111C144.939 217.721 143.651 219.063 142.04 220.136C140.43 221.102 138.552 221.854 136.405 222.391C134.365 222.927 132.272 223.196 130.125 223.196H129.48V259.587C129.48 260.768 128.89 261.359 127.709 261.359H115.149C113.968 261.359 113.378 260.768 113.378 259.587V150.412C113.378 149.232 113.968 148.641 115.149 148.641H130.125C132.272 148.641 134.365 148.909 136.405 149.446C138.552 149.983 140.43 150.788 142.04 151.862C143.651 152.828 144.939 154.116 145.905 155.726C146.979 157.336 147.515 159.215 147.515 161.362V210.475ZM117.726 162.006V163.455H120.463C122.717 163.455 124.435 163.938 125.616 164.905C126.904 165.763 127.817 166.837 128.353 168.125C128.997 169.413 129.319 170.863 129.319 172.473C129.427 173.976 129.48 175.371 129.48 176.659V209.67H131.413V162.006H117.726Z" fill="white"/>
<path d="M91.1188 181.49C91.1188 184.388 92.0312 187.179 93.8562 189.863C95.6812 192.44 97.7208 195.177 99.9751 198.075C102.229 200.866 104.269 203.872 106.094 207.093C107.919 210.206 108.832 213.802 108.832 217.881V249.442C108.832 251.589 108.295 253.468 107.221 255.078C106.255 256.689 104.967 258.03 103.357 259.104C101.746 260.177 99.8678 260.983 97.7208 261.519C95.6812 262.056 93.5878 262.324 91.4408 262.324C89.4012 262.324 87.3615 262.056 85.3219 261.519C83.2822 260.983 81.4573 260.177 79.847 259.104C78.3441 258.03 77.1096 256.689 76.1434 255.078C75.1773 253.468 74.6942 251.589 74.6942 249.442V218.365C74.6942 217.184 75.2846 216.593 76.4655 216.593H89.0254C90.2063 216.593 90.7967 217.184 90.7967 218.365V247.832H92.729V220.136C92.729 217.13 91.8165 214.285 89.9916 211.602C88.1666 208.918 86.127 206.288 83.8726 203.711C81.6183 201.135 79.5786 198.558 77.7537 195.982C75.9287 193.298 75.0163 190.454 75.0163 187.448V160.557C75.0163 158.41 75.4993 156.531 76.4655 154.921C77.539 153.31 78.8809 151.969 80.4911 150.895C82.1014 149.822 83.9263 149.016 85.966 148.48C88.113 147.943 90.26 147.675 92.407 147.675C94.554 147.675 96.5936 147.943 98.5259 148.48C100.566 149.016 102.337 149.822 103.84 150.895C105.45 151.969 106.738 153.31 107.704 154.921C108.671 156.531 109.154 158.41 109.154 160.557V182.617C109.154 183.798 108.563 184.388 107.382 184.388H94.8223C93.6415 184.388 93.0511 183.798 93.0511 182.617V162.006H79.3639V163.455H82.1014C84.3557 163.455 86.0733 163.938 87.2542 164.904C88.5424 165.763 89.4548 166.837 89.9916 168.125C90.6357 169.413 90.9577 170.862 90.9577 172.472C91.0651 173.975 91.1188 175.371 91.1188 176.659V181.49Z" fill="white"/>
<path d="M62.0198 162.167V187.287H67.1726C68.3535 187.287 68.9439 187.878 68.9439 189.058V200.008C68.9439 201.189 68.3535 201.779 67.1726 201.779H50.265V203.229H53.0024C55.2568 203.229 56.9744 203.712 58.1552 204.678C59.4434 205.537 60.3559 206.61 60.8926 207.898C61.5367 209.187 61.8588 210.636 61.8588 212.246C61.9661 213.749 62.0198 215.144 62.0198 216.433V247.833H69.588C70.7688 247.833 71.3593 248.423 71.3593 249.604V259.587C71.3593 260.768 70.7688 261.359 69.588 261.359H47.6886C46.5077 261.359 45.9173 260.768 45.9173 259.587V150.412C45.9173 149.232 46.5077 148.641 47.6886 148.641H69.588C70.7688 148.641 71.3593 149.232 71.3593 150.412V160.396C71.3593 161.577 70.7688 162.167 69.588 162.167H62.0198Z" fill="white"/>
<path d="M16.1025 162.167V187.287H21.2553C22.4362 187.287 23.0266 187.878 23.0266 189.058V200.008C23.0266 201.189 22.4362 201.779 21.2553 201.779H4.34768V203.229H7.0851C9.33945 203.229 11.0571 203.712 12.2379 204.678C13.5261 205.537 14.4386 206.61 14.9753 207.898C15.6194 209.187 15.9415 210.636 15.9415 212.246C16.0488 213.749 16.1025 215.144 16.1025 216.433V247.833H23.6707C24.8515 247.833 25.442 248.423 25.442 249.604V259.587C25.442 260.768 24.8515 261.359 23.6707 261.359H1.77128C0.590425 261.359 0 260.768 0 259.587V150.412C0 149.232 0.590425 148.641 1.77128 148.641H23.6707C24.8515 148.641 25.442 149.232 25.442 150.412V160.396C25.442 161.577 24.8515 162.167 23.6707 162.167H16.1025Z" fill="white"/>
<path d="M486 1.77128C485.034 5.52853 483.799 9.60783 482.296 14.0092C480.793 18.4105 479.13 22.8119 477.305 27.2132C475.587 31.5072 473.869 35.5865 472.152 39.4511H461.685C462.437 36.4453 463.188 33.2248 463.94 29.7896C464.798 26.3544 465.55 22.9192 466.194 19.484C466.945 15.9415 467.589 12.5063 468.126 9.17843C468.77 5.85058 469.307 2.7911 469.736 0H484.873L486 1.77128Z" fill="white"/>
<path d="M423.477 14.0091C423.477 11.8621 423.96 10.0371 424.926 8.53422C426 6.92396 427.342 5.58208 428.952 4.50858C430.562 3.43508 432.387 2.62996 434.427 2.09321C436.574 1.55646 438.721 1.28809 440.868 1.28809C443.015 1.28809 445.054 1.55646 446.987 2.09321C449.026 2.62996 450.798 3.43508 452.3 4.50858C453.911 5.47473 455.199 6.76293 456.165 8.37318C457.131 9.98344 457.614 11.8621 457.614 14.0091V103.217C457.614 105.257 457.078 107.082 456.004 108.692C455.038 110.302 453.75 111.644 452.139 112.717C450.529 113.791 448.651 114.596 446.504 115.133C444.464 115.67 442.371 115.938 440.224 115.938C438.184 115.938 436.144 115.67 434.105 115.133C432.065 114.596 430.24 113.845 428.63 112.878C427.127 111.805 425.892 110.463 424.926 108.853C423.96 107.243 423.477 105.364 423.477 103.217V14.0091ZM432.816 15.7803C435.178 16.6391 436.896 17.7663 437.969 19.1619C439.043 20.5574 439.58 22.7044 439.58 25.6029V49.5956H441.512V15.7803H432.816ZM447.148 101.446C445.323 100.372 443.927 98.923 442.961 97.098C441.995 95.273 441.512 92.804 441.512 89.6908V67.6304H439.58V101.446H447.148Z" fill="white"/>
<path d="M401.21 101.446H408.778C406.953 100.372 405.558 98.923 404.592 97.098C403.626 95.273 403.143 92.804 403.143 89.6908V52.9771H401.21V101.446ZM401.21 25.6029V38.4849H412.321C413.824 38.4849 415.005 38.7532 415.864 39.29C416.83 39.7194 417.527 40.3098 417.957 41.0613C418.494 41.8127 418.816 42.6715 418.923 43.6377C419.138 44.6038 419.245 45.5163 419.245 46.3751V103.056C419.245 105.203 418.708 107.082 417.635 108.692C416.669 110.302 415.38 111.644 413.77 112.717C412.16 113.791 410.281 114.596 408.134 115.133C406.095 115.67 404.001 115.938 401.854 115.938C399.815 115.938 397.775 115.67 395.735 115.133C393.696 114.596 391.871 113.791 390.261 112.717C388.758 111.644 387.523 110.302 386.557 108.692C385.591 107.082 385.108 105.203 385.108 103.056V14.1701C385.108 12.0231 385.591 10.1445 386.557 8.53422C387.63 6.92396 388.972 5.58208 390.583 4.50858C392.193 3.43508 394.018 2.62996 396.057 2.09321C398.204 1.55646 400.351 1.28809 402.498 1.28809C404.645 1.28809 406.685 1.55646 408.617 2.09321C410.657 2.62996 412.428 3.43508 413.931 4.50858C415.541 5.58208 416.83 6.92396 417.796 8.53422C418.762 10.1445 419.245 12.0231 419.245 14.1701V34.7813C419.245 35.9622 418.655 36.5526 417.474 36.5526H404.914C403.733 36.5526 403.143 35.9622 403.143 34.7813V15.7803H394.447C396.809 16.6391 398.526 17.7663 399.6 19.1619C400.673 20.5574 401.21 22.7044 401.21 25.6029Z" fill="white"/>
<path d="M362.841 101.446H370.409C368.584 100.372 367.189 98.923 366.223 97.098C365.256 95.273 364.773 92.804 364.773 89.6908V52.9771H351.086C349.905 52.9771 349.315 52.3867 349.315 51.2058V41.3833C349.315 40.2025 349.905 39.612 351.086 39.612H364.773V15.7803H356.078C358.44 16.6391 360.157 17.7663 361.231 19.1619C362.304 20.5574 362.841 22.7044 362.841 25.6029V34.9423C362.841 36.1232 362.251 36.7136 361.07 36.7136H348.51C347.329 36.7136 346.739 36.1232 346.739 34.9423V14.0091C346.739 11.8621 347.222 9.98344 348.188 8.37318C349.154 6.76293 350.388 5.47473 351.891 4.50858C353.502 3.43508 355.327 2.62996 357.366 2.09321C359.406 1.55646 361.445 1.28809 363.485 1.28809C365.632 1.28809 367.725 1.55646 369.765 2.09321C371.912 2.62996 373.791 3.43508 375.401 4.50858C377.011 5.58208 378.299 6.92396 379.266 8.53422C380.339 10.0371 380.876 11.8621 380.876 14.0091V37.6797C380.876 38.7532 380.5 39.7731 379.749 40.7392L375.24 46.2141L379.749 51.6889C380.5 52.6551 380.876 53.6749 380.876 54.7484V103.217C380.876 105.364 380.393 107.243 379.427 108.853C378.46 110.463 377.172 111.805 375.562 112.878C374.059 113.845 372.288 114.596 370.248 115.133C368.316 115.67 366.276 115.938 364.129 115.938C361.982 115.938 359.835 115.67 357.688 115.133C355.649 114.596 353.824 113.791 352.213 112.717C350.603 111.644 349.261 110.302 348.188 108.692C347.222 107.082 346.739 105.257 346.739 103.217V57.9689C346.739 56.7881 347.329 56.1976 348.51 56.1976H361.07C362.251 56.1976 362.841 56.7881 362.841 57.9689V101.446Z" fill="white"/>
<path d="M307.331 15.7803V101.446H321.019V99.9965H318.281C316.027 99.9965 314.255 99.567 312.967 98.7083C311.786 97.7421 310.874 96.6149 310.23 95.3267C309.693 94.0385 309.371 92.643 309.264 91.1401C309.264 89.5298 309.264 88.0806 309.264 86.7924V59.0961C309.264 57.9152 309.854 57.3248 311.035 57.3248H323.595C324.776 57.3248 325.366 57.9152 325.366 59.0961V113.201C325.366 114.918 324.561 115.401 322.951 114.65L319.408 113.039C316.188 114.972 312.377 115.938 307.976 115.938C305.936 115.938 303.896 115.67 301.857 115.133C299.817 114.596 297.992 113.845 296.382 112.878C294.879 111.805 293.644 110.463 292.678 108.853C291.712 107.243 291.229 105.364 291.229 103.217V14.0091C291.229 11.8621 291.712 10.0371 292.678 8.53422C293.752 6.92396 295.094 5.58208 296.704 4.50858C298.314 3.43508 300.139 2.62996 302.179 2.09321C304.326 1.55646 306.473 1.28809 308.62 1.28809C310.767 1.28809 312.806 1.55646 314.739 2.09321C316.778 2.62996 318.549 3.43508 320.052 4.50858C321.663 5.47473 322.951 6.76293 323.917 8.37318C324.883 9.98344 325.366 11.8621 325.366 14.0091V40.9003C325.366 42.0811 324.776 42.6715 323.595 42.6715H311.035C309.854 42.6715 309.264 42.0811 309.264 40.9003V15.7803H307.331Z" fill="white"/>
<path d="M270.894 15.6197H257.207V17.0689H259.945C262.199 17.0689 263.917 17.552 265.098 18.5181C266.386 19.3769 267.298 20.4504 267.835 21.7386C268.479 23.0268 268.801 24.476 268.801 26.0863C268.908 27.5892 268.962 28.9847 268.962 30.273V113.201C268.962 114.382 268.372 114.972 267.191 114.972H254.631C253.45 114.972 252.86 114.382 252.86 113.201V4.02587C252.86 2.84501 253.45 2.25459 254.631 2.25459H265.098C265.849 2.25459 266.439 2.84501 266.869 4.02587L268.962 9.50072C269.928 7.03167 271.055 5.09936 272.344 3.70381C273.739 2.20091 275.886 1.44946 278.785 1.44946C280.824 1.44946 282.703 2.09356 284.421 3.38177C286.138 4.66996 286.997 6.70961 286.997 9.50072V113.201C286.997 114.382 286.407 114.972 285.226 114.972H272.666C271.485 114.972 270.894 114.382 270.894 113.201V15.6197Z" fill="white"/>
<path d="M232.574 4.02543C232.574 2.84458 233.165 2.25415 234.346 2.25415H246.906C248.086 2.25415 248.677 2.84458 248.677 4.02543V113.2C248.677 114.381 248.086 114.972 246.906 114.972H234.346C233.165 114.972 232.574 114.381 232.574 113.2V4.02543Z" fill="white"/>
<path d="M208.955 15.6192V17.0685H211.693C213.947 17.0685 215.665 17.5515 216.845 18.5177C218.134 19.3765 219.046 20.45 219.583 21.7382C220.227 23.0264 220.549 24.4756 220.549 26.0859C220.656 27.5888 220.71 28.9843 220.71 30.2725V113.2C220.71 114.381 220.12 114.972 218.939 114.972H206.379C205.198 114.972 204.607 114.381 204.607 113.2V15.6192H197.039C195.858 15.6192 195.268 15.0288 195.268 13.848V4.02543C195.268 2.84458 195.858 2.25415 197.039 2.25415H228.278C229.459 2.25415 230.049 2.84458 230.049 4.02543V13.848C230.049 15.0288 229.459 15.6192 228.278 15.6192H208.955Z" fill="white"/>
<path d="M184.204 15.7803V40.9002H189.357C190.538 40.9002 191.128 41.4906 191.128 42.6714V53.6211C191.128 54.802 190.538 55.3924 189.357 55.3924H172.449V56.8416H175.186C177.441 56.8416 179.158 57.3247 180.339 58.2909C181.627 59.1497 182.54 60.2232 183.077 61.5114C183.721 62.7996 184.043 64.2488 184.043 65.8591C184.15 67.362 184.204 68.7575 184.204 70.0457V101.446H191.772C192.953 101.446 193.543 102.036 193.543 103.217V113.2C193.543 114.381 192.953 114.972 191.772 114.972H169.873C168.692 114.972 168.101 114.381 168.101 113.2V4.02543C168.101 2.84458 168.692 2.25415 169.873 2.25415H191.772C192.953 2.25415 193.543 2.84458 193.543 4.02543V14.009C193.543 15.1898 192.953 15.7803 191.772 15.7803H184.204Z" fill="white"/>
<path d="M145.835 67.6303V113.2C145.835 114.381 145.244 114.972 144.063 114.972H131.503C130.323 114.972 129.732 114.381 129.732 113.2V4.02543C129.732 2.84458 130.323 2.25415 131.503 2.25415H144.063C145.244 2.25415 145.835 2.84458 145.835 4.02543V39.612H147.767V4.02543C147.767 2.84458 148.357 2.25415 149.538 2.25415H162.098C163.279 2.25415 163.869 2.84458 163.869 4.02543V37.6797C163.869 38.7532 163.494 39.773 162.742 40.7391L158.234 46.214L162.742 51.6889C163.494 52.655 163.869 53.6748 163.869 54.7483V113.2C163.869 114.381 163.279 114.972 162.098 114.972H149.538C148.357 114.972 147.767 114.381 147.767 113.2V52.977H134.08V54.4263H136.817C139.072 54.4263 140.789 54.9093 141.97 55.8755C143.258 56.7343 144.171 57.8078 144.707 59.096C145.352 60.3842 145.674 61.8334 145.674 63.4437C145.781 64.9466 145.835 66.3421 145.835 67.6303Z" fill="white"/>
<path d="M107.465 39.612H109.398V15.6192H107.465V39.612ZM95.7105 52.977V54.4263H98.448C100.702 54.4263 102.42 54.9093 103.601 55.8755C104.889 56.7343 105.801 57.8078 106.338 59.096C106.982 60.3842 107.304 61.8334 107.304 63.4437C107.412 64.9466 107.465 66.3421 107.465 67.6303V113.2C107.465 114.381 106.875 114.972 105.694 114.972H93.1341C91.9533 114.972 91.3629 114.381 91.3629 113.2V4.02543C91.3629 2.84458 91.9533 2.25415 93.1341 2.25415H108.109C110.256 2.25415 112.35 2.52253 114.389 3.05927C116.536 3.59602 118.415 4.40115 120.025 5.47466C121.636 6.44081 122.924 7.72901 123.89 9.33926C124.963 10.9495 125.5 12.8281 125.5 14.9751V37.6797C125.5 38.7532 125.124 39.773 124.373 40.7391L119.864 46.214L124.373 51.6889C125.124 52.655 125.5 53.6748 125.5 54.7483V113.2C125.5 114.381 124.91 114.972 123.729 114.972H111.169C109.988 114.972 109.398 114.381 109.398 113.2V52.977H95.7105Z" fill="white"/>
<path d="M70.788 62.3165H72.7204V15.7803H70.788V62.3165ZM59.0332 76.9698V78.419H61.7706C64.025 78.419 65.7426 78.9021 66.9234 79.8682C68.2116 80.727 69.1241 81.8005 69.6609 83.0887C70.305 84.3769 70.627 85.8262 70.627 87.4364C70.7344 88.9393 70.788 90.3349 70.788 91.6231V113.2C70.788 114.381 70.1976 114.972 69.0168 114.972H56.4568C55.276 114.972 54.6855 114.381 54.6855 113.2L59.1942 4.5085C59.1942 3.97175 59.4089 3.48868 59.8383 3.05927C60.2677 2.52253 61.0192 2.25415 62.0927 2.25415H81.4157C82.4892 2.25415 83.2407 2.52253 83.6701 3.05927C84.0995 3.48868 84.3142 3.97175 84.3142 4.5085L88.8229 113.2C88.8229 114.381 88.2324 114.972 87.0516 114.972H74.4916C73.3108 114.972 72.7204 114.381 72.7204 113.2V76.9698H59.0332Z" fill="white"/>
<path d="M4.34768 15.6197V17.0689H7.0851C9.33945 17.0689 11.0571 17.552 12.2379 18.5181C13.5261 19.3769 14.4386 20.4504 14.9753 21.7386C15.6194 23.0268 15.9415 24.476 15.9415 26.0863C16.0488 27.5892 16.1025 28.9847 16.1025 30.273V113.201C16.1025 114.382 15.5121 114.972 14.3312 114.972H1.77128C0.590425 114.972 0 114.382 0 113.201V4.02587C0 2.84501 0.590425 2.25459 1.77128 2.25459H12.2379C12.9894 2.25459 13.5798 2.84501 14.0092 4.02587L16.1025 9.50072C17.0687 7.03167 18.1958 5.09936 19.484 3.70381C20.8796 2.20091 23.0266 1.44946 25.925 1.44946C27.9647 1.44946 29.8433 2.09356 31.5609 3.38177C33.2785 4.66996 34.1373 6.70961 34.1373 9.50072C35.1035 7.03167 36.2306 5.09936 37.5188 3.70381C38.9144 2.20091 41.0614 1.44946 43.9598 1.44946C45.9995 1.44946 47.8781 2.14724 49.5957 3.54279C51.3133 4.83099 52.1721 6.87064 52.1721 9.66174V113.201C52.1721 114.382 51.5817 114.972 50.4008 114.972H37.8409C36.66 114.972 36.0696 114.382 36.0696 113.201V15.6197H34.1373V113.201C34.1373 114.382 33.5469 114.972 32.366 114.972H19.8061C18.6252 114.972 18.0348 114.382 18.0348 113.201V15.6197H4.34768Z" fill="white"/>
</svg>
