<?xml version="1.0" encoding="UTF-8"?>
<svg id="Camada_2" data-name="Camada 2" xmlns="http://www.w3.org/2000/svg" viewBox="0 0 217.8 196.1">
  <defs>
    <style>
      .cls-1 {
        fill: #fff;
        stroke-width: 0px;
      }
    </style>
  </defs>
  <g id="Camada_1-2" data-name="Camada 1">
    <g>
      <path class="cls-1" d="m209.79.08c-10.93.35-21.85.22-32.78-.07-6.49-.17-11.05,2.35-14.63,7.65-16.39,24.2-32.91,48.3-49.4,72.43-2.77,4.06-5.5,4.07-8.32.11-.39-.55-.76-1.11-1.14-1.66C86.87,54.14,70.21,29.77,53.6,5.36,51.39,2.11,47.73.17,43.81.12,31.4-.02,18.99.03,6.59.1,2.73.12.31,2.57.14,6.41c-.02.55-.03,1.09-.03,1.64h-.1v180.52h0c0,1.14.11,2.31.44,3.28.79,2.33,2.54,3.83,5.1,3.89,3.17.07,6.34-.08,9.51.09,1.88.1,2.94-.53,3.89-2.16,3.37-5.82,6.93-11.53,11.6-16.43,1.32-1.38,1.23-2.61.03-4.03-5.09-6.05-29.53-37.36-13.44-58.77h0s0,0,0,0c6.95-10.28,16.59-16.04,28.98-14.74,17.93,1.87,27.16,14.11,26.56,31.86-.12,3.65-.7,7.41-2.72,10.46-4.25,6.43-11.45,8.38-18.17,10.8-1.95.7-4.31.84-6.56.35-8.87-1.94-14.42-7.48-16.72-16.06-2.92-10.87,5.52-21.72,16.75-21.96,5.64-.12,11.73,5.35,12.22,10.64.64,7.05-3.87,11.02-9.6,11.57-1.53.15-2.63-.25-3.35-1.62-.71-1.35-.58-2.68.44-3.73.79-.81,1.81-1.4,2.76-2.04,1.36-.92,1.86-2.17,1.51-3.74-.38-1.68-1.42-2.58-3.19-2.83-4.06-.56-7.94,1.97-9.25,6.16-1.7,5.42.82,11.68,5.89,14.29,7.37,3.81,16.77-.37,20.29-6.41,3.44-5.9,3-12.51,0-18.57-3.8-7.7-13.65-12.45-22.07-11.13-10.71,1.68-18.06,8.13-19.69,17.51-.81,4.67-.81,9.39.2,14.05,2.16,9.92,7.39,18.28,13.47,26.17,3.36,4.36,3.43,4.32,7.65.95,26.69-21.29,56.83-27.71,90.03-20.89,4.61.95,8.22,3.16,9.72,7.96.3.95.66,1.98,2.1,2.31-.51-1.2-.95-2.22-1.38-3.24-6.82-16.38,5.07-37.35,26.05-37.31,12.87.02,23.43,10.05,26.58,23.58,2.32,9.97-5.51,25.01-15.53,28.54-2.54.89-2.25,2.04-.52,3.61,5.16,4.68,9.46,10.07,13.45,15.77,2.07,2.96,2.91,7.47,6.13,8.71,3.27,1.27,7.39.34,11.14.33,5.06-.01,7.49-2.37,7.5-7.35.01-60.31.01-120.62,0-180.93,0-5.13-2.68-7.58-8.01-7.41Z"/>
      <path class="cls-1" d="m179.81,183.69c-1.34.16-2.37.63-2.42,2.23-.06,1.89,1.07,2.73,2.79,2.64,1.23-.06,2.34-1.11,2.38-2.33.06-1.68-1.24-2.35-2.75-2.54Z"/>
    </g>
  </g>
</svg>