
<svg width="726" height="155" viewBox="0 0 726 155" fill="none" xmlns="http://www.w3.org/2000/svg">
<path d="M701.712 45.5405C701.712 49.444 702.941 53.2029 705.398 56.8172C707.856 60.2869 710.603 63.9736 713.639 67.877C716.675 71.6359 719.422 75.684 721.88 80.0212C724.337 84.2138 725.566 89.057 725.566 94.5508V137.055C725.566 139.947 724.843 142.477 723.398 144.645C722.097 146.814 720.362 148.621 718.193 150.067C716.024 151.513 713.494 152.597 710.603 153.32C707.856 154.043 705.037 154.404 702.145 154.404C699.399 154.404 696.652 154.043 693.905 153.32C691.158 152.597 688.7 151.513 686.532 150.067C684.508 148.621 682.845 146.814 681.544 144.645C680.243 142.477 679.592 139.947 679.592 137.055V95.2013C679.592 93.611 680.387 92.8159 681.978 92.8159H698.893C700.483 92.8159 701.278 93.611 701.278 95.2013V134.887H703.88V97.5868C703.88 93.5387 702.651 89.7076 700.194 86.0932C697.736 82.4789 694.989 78.9369 691.953 75.4671C688.917 71.9974 686.17 68.5276 683.712 65.0579C681.255 61.4435 680.026 57.6124 680.026 53.5643V17.3488C680.026 14.4573 680.676 11.9273 681.978 9.75868C683.423 7.59008 685.23 5.78292 687.399 4.33719C689.568 2.89146 692.025 1.80716 694.772 1.08429C697.664 0.361429 700.555 0 703.447 0C706.338 0 709.085 0.361429 711.687 1.08429C714.434 1.80716 716.82 2.89146 718.844 4.33719C721.012 5.78292 722.747 7.59008 724.048 9.75868C725.349 11.9273 726 14.4573 726 17.3488V47.0585C726 48.6488 725.205 49.444 723.615 49.444H706.699C705.109 49.444 704.314 48.6488 704.314 47.0585V19.3005H685.881V21.2522H689.568C692.604 21.2522 694.917 21.9028 696.507 23.204C698.242 24.3606 699.471 25.8063 700.194 27.5412C701.061 29.276 701.495 31.2278 701.495 33.3964C701.639 35.4204 701.712 37.2998 701.712 39.0347V45.5405Z" fill="white"/>
<path d="M627.918 17.1319C627.918 14.2404 628.569 11.7827 629.87 9.75868C631.316 7.59008 633.123 5.78292 635.292 4.33719C637.46 2.89146 639.918 1.80716 642.665 1.08429C645.556 0.361429 648.448 0 651.339 0C654.231 0 656.978 0.361429 659.58 1.08429C662.327 1.80716 664.712 2.89146 666.736 4.33719C668.905 5.63834 670.64 7.37322 671.941 9.54181C673.242 11.7104 673.893 14.2404 673.893 17.1319V137.272C673.893 140.019 673.17 142.477 671.724 144.645C670.423 146.814 668.688 148.621 666.519 150.067C664.351 151.513 661.821 152.597 658.929 153.32C656.183 154.043 653.363 154.404 650.472 154.404C647.725 154.404 644.978 154.043 642.231 153.32C639.484 152.597 637.027 151.585 634.858 150.284C632.834 148.838 631.171 147.031 629.87 144.862C628.569 142.694 627.918 140.164 627.918 137.272V17.1319ZM649.604 134.887H652.207V19.3005H633.774V21.2522H637.46C640.496 21.2522 642.809 21.9028 644.4 23.204C646.135 24.3606 647.364 25.8063 648.086 27.5412C648.954 29.276 649.388 31.2278 649.388 33.3964C649.532 35.4204 649.604 37.2998 649.604 39.0347V134.887Z" fill="white"/>
<path d="M596.11 19.3005V21.2522H599.796C602.832 21.2522 605.145 21.9028 606.736 23.204C608.471 24.3605 609.699 25.8063 610.422 27.5412C611.29 29.276 611.723 31.2278 611.723 33.3964C611.868 35.4204 611.94 37.2998 611.94 39.0347V150.717C611.94 152.308 611.145 153.103 609.555 153.103H592.64C591.05 153.103 590.254 152.308 590.254 150.717V19.3005H580.062C578.472 19.3005 577.677 18.5053 577.677 16.915V3.68661C577.677 2.0963 578.472 1.30115 580.062 1.30115H622.133C623.723 1.30115 624.518 2.0963 624.518 3.68661V16.915C624.518 18.5053 623.723 19.3005 622.133 19.3005H596.11Z" fill="white"/>
<path d="M562.776 19.5173V53.3475H569.715C571.306 53.3475 572.101 54.1426 572.101 55.7329V70.4793C572.101 72.0697 571.306 72.8648 569.715 72.8648H546.945V74.8165H550.632C553.668 74.8165 555.981 75.4671 557.571 76.7683C559.306 77.9249 560.535 79.3706 561.258 81.1055C562.125 82.8403 562.559 84.7921 562.559 86.9607C562.704 88.9847 562.776 90.8642 562.776 92.599V134.887H572.968C574.558 134.887 575.354 135.682 575.354 137.272V150.717C575.354 152.308 574.558 153.103 572.968 153.103H543.475C541.885 153.103 541.09 152.308 541.09 150.717V3.68661C541.09 2.0963 541.885 1.30115 543.475 1.30115H572.968C574.558 1.30115 575.354 2.0963 575.354 3.68661V17.1319C575.354 18.7222 574.558 19.5173 572.968 19.5173H562.776Z" fill="white"/>
<path d="M511.102 134.887H529.535V132.935H525.849C522.813 132.935 520.427 132.357 518.692 131.2C517.102 129.899 515.873 128.381 515.006 126.646C514.283 124.911 513.849 123.032 513.705 121.008C513.705 118.839 513.705 116.887 513.705 115.152V3.68661C513.705 2.0963 514.5 1.30115 516.09 1.30115H533.005C534.595 1.30115 535.391 2.0963 535.391 3.68661V137.272C535.391 140.019 534.668 142.477 533.222 144.645C531.921 146.814 530.186 148.621 528.017 150.067C525.849 151.513 523.319 152.597 520.427 153.32C517.68 154.043 514.861 154.404 511.97 154.404C509.223 154.404 506.476 154.043 503.729 153.32C500.982 152.597 498.524 151.585 496.356 150.284C494.332 148.838 492.669 147.031 491.368 144.862C490.067 142.694 489.416 140.164 489.416 137.272V92.8159C489.416 91.081 490.212 90.2136 491.802 90.2136H508.717C510.307 90.2136 511.102 91.0087 511.102 92.599V134.887Z" fill="white"/>
<path d="M437.743 17.1319C437.743 14.2404 438.393 11.7827 439.695 9.75868C441.14 7.59008 442.947 5.78292 445.116 4.33719C447.285 2.89146 449.742 1.80716 452.489 1.08429C455.381 0.361429 458.272 0 461.164 0C464.055 0 466.802 0.361429 469.404 1.08429C472.151 1.80716 474.537 2.89146 476.561 4.33719C478.729 5.63834 480.464 7.37322 481.765 9.54181C483.066 11.7104 483.717 14.2404 483.717 17.1319V137.272C483.717 140.019 482.994 142.477 481.548 144.645C480.247 146.814 478.512 148.621 476.344 150.067C474.175 151.513 471.645 152.597 468.754 153.32C466.007 154.043 463.188 154.404 460.296 154.404C457.549 154.404 454.802 154.043 452.056 153.32C449.309 152.597 446.851 151.585 444.682 150.284C442.658 148.838 440.996 147.031 439.695 144.862C438.393 142.694 437.743 140.164 437.743 137.272V17.1319ZM459.429 134.887H462.031V19.3005H443.598V21.2522H447.285C450.321 21.2522 452.634 21.9028 454.224 23.204C455.959 24.3606 457.188 25.8063 457.911 27.5412C458.778 29.276 459.212 31.2278 459.212 33.3964C459.356 35.4204 459.429 37.2998 459.429 39.0347V134.887Z" fill="white"/>
<path d="M407.755 51.6126H410.357V19.3005H407.755V51.6126ZM391.924 69.6119V71.5636H395.611C398.647 71.5636 400.96 72.2142 402.551 73.5154C404.285 74.672 405.514 76.1177 406.237 77.8526C407.105 79.5875 407.538 81.5392 407.538 83.7078C407.683 85.7318 407.755 87.6113 407.755 89.3461V150.717C407.755 152.308 406.96 153.103 405.37 153.103H388.455C386.864 153.103 386.069 152.308 386.069 150.717V3.68661C386.069 2.0963 386.864 1.30115 388.455 1.30115H408.623C411.514 1.30115 414.333 1.66258 417.08 2.38544C419.972 3.10831 422.502 4.19261 424.67 5.63835C426.839 6.9395 428.574 8.67438 429.875 10.843C431.321 13.0116 432.043 15.5416 432.043 18.433V49.0103C432.043 50.456 431.537 51.8294 430.525 53.1306L424.453 60.5038L430.525 67.877C431.537 69.1782 432.043 70.5516 432.043 71.9974V150.717C432.043 152.308 431.248 153.103 429.658 153.103H412.743C411.153 153.103 410.357 152.308 410.357 150.717V69.6119H391.924Z" fill="white"/>
<path d="M380.37 84.5752C380.37 87.4667 379.647 89.9967 378.201 92.1653C376.9 94.3339 375.165 96.1411 372.997 97.5868C370.828 98.888 368.298 99.9 365.407 100.623C362.66 101.346 359.84 101.707 356.949 101.707H356.082V150.717C356.082 152.308 355.286 153.103 353.696 153.103H336.781C335.191 153.103 334.396 152.308 334.396 150.717V3.68661C334.396 2.0963 335.191 1.30115 336.781 1.30115H356.949C359.84 1.30115 362.66 1.66258 365.407 2.38544C368.298 3.10831 370.828 4.19261 372.997 5.63835C375.165 6.9395 376.9 8.67438 378.201 10.843C379.647 13.0116 380.37 15.5416 380.37 18.433V84.5752ZM340.251 19.3005V21.2522H343.937C346.973 21.2522 349.287 21.9028 350.877 23.204C352.612 24.3605 353.841 25.8063 354.564 27.5412C355.431 29.276 355.865 31.2278 355.865 33.3964C356.009 35.4204 356.082 37.2998 356.082 39.0347V83.4909H358.684V19.3005H340.251Z" fill="white"/>
<path d="M281.335 45.5405C281.335 49.444 282.563 53.2029 285.021 56.8172C287.479 60.2869 290.226 63.9736 293.262 67.877C296.298 71.6359 299.045 75.684 301.503 80.0212C303.96 84.2138 305.189 89.057 305.189 94.5508V137.055C305.189 139.947 304.466 142.477 303.021 144.645C301.719 146.814 299.985 148.621 297.816 150.067C295.647 151.513 293.117 152.597 290.226 153.32C287.479 154.043 284.66 154.404 281.768 154.404C279.021 154.404 276.275 154.043 273.528 153.32C270.781 152.597 268.323 151.513 266.154 150.067C264.13 148.621 262.468 146.814 261.167 144.645C259.866 142.477 259.215 139.947 259.215 137.055V95.2013C259.215 93.611 260.01 92.8159 261.6 92.8159H278.515C280.106 92.8159 280.901 93.611 280.901 95.2013V134.887H283.503V97.5868C283.503 93.5387 282.274 89.7076 279.817 86.0932C277.359 82.4789 274.612 78.9369 271.576 75.4671C268.54 71.9974 265.793 68.5276 263.335 65.0579C260.878 61.4435 259.649 57.6124 259.649 53.5643V17.3488C259.649 14.4573 260.299 11.9273 261.6 9.75868C263.046 7.59008 264.853 5.78292 267.022 4.33719C269.191 2.89146 271.648 1.80716 274.395 1.08429C277.287 0.361429 280.178 0 283.07 0C285.961 0 288.708 0.361429 291.31 1.08429C294.057 1.80716 296.442 2.89146 298.467 4.33719C300.635 5.78292 302.37 7.59008 303.671 9.75868C304.972 11.9273 305.623 14.4573 305.623 17.3488V47.0585C305.623 48.6488 304.828 49.444 303.237 49.444H286.322C284.732 49.444 283.937 48.6488 283.937 47.0585V19.3005H265.504V21.2522H269.191C272.227 21.2522 274.54 21.9028 276.13 23.204C277.865 24.3606 279.094 25.8063 279.817 27.5412C280.684 29.276 281.118 31.2278 281.118 33.3964C281.262 35.4204 281.335 37.2998 281.335 39.0347V45.5405Z" fill="white"/>
<path d="M207.541 17.1319C207.541 14.2404 208.192 11.7827 209.493 9.75868C210.939 7.59008 212.746 5.78292 214.915 4.33719C217.083 2.89146 219.541 1.80716 222.288 1.08429C225.179 0.361429 228.071 0 230.962 0C233.854 0 236.601 0.361429 239.203 1.08429C241.95 1.80716 244.335 2.89146 246.359 4.33719C248.528 5.63834 250.263 7.37322 251.564 9.54181C252.865 11.7104 253.516 14.2404 253.516 17.1319V137.272C253.516 140.019 252.793 142.477 251.347 144.645C250.046 146.814 248.311 148.621 246.142 150.067C243.974 151.513 241.444 152.597 238.552 153.32C235.805 154.043 232.986 154.404 230.095 154.404C227.348 154.404 224.601 154.043 221.854 153.32C219.107 152.597 216.649 151.585 214.481 150.284C212.457 148.838 210.794 147.031 209.493 144.862C208.192 142.694 207.541 140.164 207.541 137.272V17.1319ZM229.227 134.887H231.83V19.3005H213.397V21.2522H217.083C220.119 21.2522 222.432 21.9028 224.023 23.204C225.758 24.3606 226.986 25.8063 227.709 27.5412C228.577 29.276 229.01 31.2278 229.01 33.3964C229.155 35.4204 229.227 37.2998 229.227 39.0347V134.887Z" fill="white"/>
<path d="M177.564 45.5405C177.564 49.444 178.793 53.2029 181.25 56.8172C183.708 60.2869 186.455 63.9736 189.491 67.877C192.527 71.6359 195.274 75.684 197.732 80.0212C200.19 84.2138 201.418 89.057 201.418 94.5508V137.055C201.418 139.947 200.696 142.477 199.25 144.645C197.949 146.814 196.214 148.621 194.045 150.067C191.877 151.513 189.347 152.597 186.455 153.32C183.708 154.043 180.889 154.404 177.998 154.404C175.251 154.404 172.504 154.043 169.757 153.32C167.01 152.597 164.552 151.513 162.384 150.067C160.36 148.621 158.697 146.814 157.396 144.645C156.095 142.477 155.444 139.947 155.444 137.055V95.2013C155.444 93.611 156.239 92.8159 157.83 92.8159H174.745C176.335 92.8159 177.13 93.611 177.13 95.2013V134.887H179.732V97.5868C179.732 93.5387 178.504 89.7076 176.046 86.0932C173.588 82.4789 170.841 78.9369 167.805 75.4671C164.769 71.9974 162.022 68.5276 159.565 65.0579C157.107 61.4435 155.878 57.6124 155.878 53.5643V17.3488C155.878 14.4573 156.529 11.9273 157.83 9.75868C159.275 7.59008 161.083 5.78292 163.251 4.33719C165.42 2.89146 167.877 1.80716 170.624 1.08429C173.516 0.361429 176.407 0 179.299 0C182.19 0 184.937 0.361429 187.539 1.08429C190.286 1.80716 192.672 2.89146 194.696 4.33719C196.864 5.78292 198.599 7.59008 199.9 9.75868C201.202 11.9273 201.852 14.4573 201.852 17.3488V47.0585C201.852 48.6488 201.057 49.444 199.467 49.444H182.552C180.961 49.444 180.166 48.6488 180.166 47.0585V19.3005H161.733V21.2522H165.42C168.456 21.2522 170.769 21.9028 172.359 23.204C174.094 24.3606 175.323 25.8063 176.046 27.5412C176.913 29.276 177.347 31.2278 177.347 33.3964C177.492 35.4204 177.564 37.2998 177.564 39.0347V45.5405Z" fill="white"/>
<path d="M125.467 45.5405C125.467 49.444 126.696 53.2029 129.153 56.8172C131.611 60.2869 134.358 63.9736 137.394 67.877C140.43 71.6359 143.177 75.684 145.635 80.0212C148.093 84.2138 149.321 89.057 149.321 94.5508V137.055C149.321 139.947 148.599 142.477 147.153 144.645C145.852 146.814 144.117 148.621 141.948 150.067C139.78 151.513 137.25 152.597 134.358 153.32C131.611 154.043 128.792 154.404 125.901 154.404C123.154 154.404 120.407 154.043 117.66 153.32C114.913 152.597 112.455 151.513 110.287 150.067C108.263 148.621 106.6 146.814 105.299 144.645C103.998 142.477 103.347 139.947 103.347 137.055V95.2013C103.347 93.611 104.142 92.8159 105.733 92.8159H122.648C124.238 92.8159 125.033 93.611 125.033 95.2013V134.887H127.635V97.5868C127.635 93.5387 126.407 89.7076 123.949 86.0932C121.491 82.4789 118.744 78.9369 115.708 75.4671C112.672 71.9974 109.925 68.5276 107.468 65.0579C105.01 61.4435 103.781 57.6124 103.781 53.5643V17.3488C103.781 14.4573 104.431 11.9273 105.733 9.75868C107.178 7.59008 108.986 5.78292 111.154 4.33719C113.323 2.89146 115.78 1.80716 118.527 1.08429C121.419 0.361429 124.31 0 127.202 0C130.093 0 132.84 0.361429 135.442 1.08429C138.189 1.80716 140.575 2.89146 142.599 4.33719C144.767 5.78292 146.502 7.59008 147.803 9.75868C149.105 11.9273 149.755 14.4573 149.755 17.3488V47.0585C149.755 48.6488 148.96 49.444 147.37 49.444H130.455C128.864 49.444 128.069 48.6488 128.069 47.0585V19.3005H109.636V21.2522H113.323C116.359 21.2522 118.672 21.9028 120.262 23.204C121.997 24.3606 123.226 25.8063 123.949 27.5412C124.816 29.276 125.25 31.2278 125.25 33.3964C125.395 35.4204 125.467 37.2998 125.467 39.0347V45.5405Z" fill="white"/>
<path d="M51.6736 17.1319C51.6736 14.2404 52.3242 11.7827 53.6253 9.75868C55.0711 7.59008 56.8782 5.78292 59.0468 4.33719C61.2154 2.89146 63.6731 1.80716 66.42 1.08429C69.3115 0.361429 72.203 0 75.0944 0C77.9859 0 80.7328 0.361429 83.3351 1.08429C86.082 1.80716 88.4674 2.89146 90.4914 4.33719C92.66 5.63834 94.3949 7.37322 95.6961 9.54181C96.9972 11.7104 97.6478 14.2404 97.6478 17.1319V137.272C97.6478 140.019 96.9249 142.477 95.4792 144.645C94.1781 146.814 92.4432 148.621 90.2746 150.067C88.106 151.513 85.576 152.597 82.6845 153.32C79.9376 154.043 77.1184 154.404 74.227 154.404C71.4801 154.404 68.7332 154.043 65.9863 153.32C63.2394 152.597 60.7817 151.585 58.6131 150.284C56.5891 148.838 54.9265 147.031 53.6253 144.862C52.3242 142.694 51.6736 140.164 51.6736 137.272V17.1319ZM73.3595 134.887H75.9619V19.3005H57.5288V21.2522H61.2154C64.2514 21.2522 66.5646 21.9028 68.1549 23.204C69.8898 24.3606 71.1187 25.8063 71.8415 27.5412C72.709 29.276 73.1427 31.2278 73.1427 33.3964C73.2873 35.4204 73.3595 37.2998 73.3595 39.0347V134.887Z" fill="white"/>
<path d="M24.2883 19.3004H5.85521V21.2522H9.54182C12.5779 21.2522 14.891 21.9027 16.4813 23.2039C18.2162 24.3605 19.4451 25.8062 20.1679 27.5411C21.0354 29.276 21.4691 31.2277 21.4691 33.3963C21.6137 35.4203 21.686 37.2998 21.686 39.0347V150.717C21.686 152.308 20.8908 153.103 19.3005 153.103H2.38545C0.795152 153.103 0 152.308 0 150.717V3.68655C0 2.09625 0.795152 1.30109 2.38545 1.30109H16.4813C17.4933 1.30109 18.2885 2.09625 18.8668 3.68655L21.686 11.0598C22.9871 7.73459 24.5051 5.13228 26.24 3.25283C28.1195 1.22881 31.0109 0.216797 34.9144 0.216797C37.6613 0.216797 40.1913 1.08424 42.5045 2.81912C44.8176 4.55399 45.9742 7.30087 45.9742 11.0598V150.717C45.9742 152.308 45.1791 153.103 43.5888 153.103H26.6737C25.0834 153.103 24.2883 152.308 24.2883 150.717V19.3004Z" fill="white"/>
</svg>
