<svg width="710" height="196" viewBox="0 0 710 196" fill="none" xmlns="http://www.w3.org/2000/svg">
<path d="M194.919 118.21C194.919 120.971 195.803 123.63 197.573 126.186C199.342 128.64 201.32 131.247 203.506 134.008C205.692 136.667 207.67 139.53 209.439 142.598C211.209 145.563 212.093 148.989 212.093 152.874V182.937C212.093 184.982 211.573 186.772 210.532 188.305C209.595 189.839 208.346 191.117 206.785 192.14C205.223 193.162 203.402 193.929 201.32 194.441C199.342 194.952 197.313 195.207 195.231 195.207C193.253 195.207 191.275 194.952 189.298 194.441C187.32 193.929 185.551 193.162 183.989 192.14C182.532 191.117 181.335 189.839 180.398 188.305C179.461 186.772 178.993 184.982 178.993 182.937V153.334C178.993 152.21 179.565 151.647 180.71 151.647H192.889C194.034 151.647 194.606 152.21 194.606 153.334V181.403H196.48V155.022C196.48 152.158 195.595 149.449 193.826 146.892C192.056 144.336 190.078 141.831 187.893 139.377C185.707 136.923 183.729 134.468 181.959 132.014C180.19 129.458 179.305 126.748 179.305 123.885V98.2705C179.305 96.2254 179.774 94.436 180.71 92.9022C181.751 91.3683 183.052 90.0902 184.614 89.0676C186.175 88.0451 187.945 87.2782 189.922 86.7669C192.004 86.2556 194.086 86 196.168 86C198.249 86 200.227 86.2556 202.101 86.7669C204.078 87.2782 205.796 88.0451 207.253 89.0676C208.815 90.0902 210.064 91.3683 211 92.9022C211.937 94.436 212.406 96.2254 212.406 98.2705V119.284C212.406 120.409 211.833 120.971 210.688 120.971H198.51C197.365 120.971 196.792 120.409 196.792 119.284V99.6509H183.521V101.031H186.175C188.361 101.031 190.026 101.492 191.171 102.412C192.42 103.23 193.305 104.252 193.826 105.479C194.45 106.706 194.762 108.087 194.762 109.621C194.867 111.052 194.919 112.382 194.919 113.609V118.21Z" fill="white"/>
<path d="M138.667 98.1171C138.667 96.072 139.135 94.3337 140.072 92.9022C141.113 91.3683 142.414 90.0902 143.975 89.0676C145.537 88.0451 147.306 87.2782 149.284 86.7669C151.366 86.2556 153.447 86 155.529 86C157.611 86 159.589 86.2556 161.462 86.7669C163.44 87.2782 165.157 88.0451 166.615 89.0676C168.176 89.9879 169.425 91.215 170.362 92.7488C171.299 94.2826 171.767 96.072 171.767 98.1171V183.09C171.767 185.033 171.247 186.772 170.206 188.305C169.269 189.839 168.02 191.117 166.459 192.14C164.897 193.162 163.076 193.929 160.994 194.441C159.016 194.952 156.986 195.207 154.905 195.207C152.927 195.207 150.949 194.952 148.972 194.441C146.994 193.929 145.224 193.214 143.663 192.293C142.206 191.271 141.009 189.993 140.072 188.459C139.135 186.925 138.667 185.135 138.667 183.09V98.1171ZM154.28 181.403H156.154V99.6509H142.882V101.031H145.537C147.722 101.031 149.388 101.492 150.533 102.412C151.782 103.23 152.667 104.252 153.187 105.479C153.812 106.706 154.124 108.087 154.124 109.621C154.228 111.052 154.28 112.382 154.28 113.609V181.403Z" fill="white"/>
<path d="M85.1736 99.6509V101.031H87.8279C90.0137 101.031 91.6792 101.491 92.8242 102.412C94.0732 103.23 94.958 104.252 95.4784 105.479C96.103 106.706 96.4152 108.087 96.4152 109.621C96.5193 111.052 96.5714 112.382 96.5714 113.609V192.6C96.5714 193.725 95.9989 194.287 94.8539 194.287H82.6754C81.5305 194.287 80.958 193.725 80.958 192.6V88.6074C80.958 87.4826 81.5305 86.9202 82.6754 86.9202H92.8242C93.5528 86.9202 94.1253 87.4826 94.5416 88.6074L96.5714 93.8224C97.5082 91.4705 98.6011 89.63 99.8502 88.3007C101.203 86.8691 103.285 86.1533 106.096 86.1533C108.073 86.1533 109.895 86.7668 111.56 87.9939C113.226 89.2209 114.058 91.1638 114.058 93.8224C114.995 91.4705 116.088 89.63 117.337 88.3007C118.69 86.8691 120.772 86.1533 123.583 86.1533C125.56 86.1533 127.382 86.818 129.047 88.1473C130.713 89.3743 131.545 91.3172 131.545 93.9758V192.6C131.545 193.725 130.973 194.287 129.828 194.287H117.649C116.504 194.287 115.932 193.725 115.932 192.6V99.6509H114.058V192.6C114.058 193.725 113.486 194.287 112.341 194.287H100.162C99.0175 194.287 98.445 193.725 98.445 192.6V99.6509H85.1736Z" fill="white"/>
<path d="M40.6315 98.1171C40.6315 96.072 41.0999 94.3337 42.0367 92.9022C43.0776 91.3683 44.3787 90.0902 45.9401 89.0676C47.5014 88.0451 49.2709 87.2782 51.2486 86.7669C53.3304 86.2556 55.4122 86 57.494 86C59.5758 86 61.5535 86.2556 63.4271 86.7669C65.4048 87.2782 67.1223 88.0451 68.5795 89.0676C70.1409 89.9879 71.3899 91.215 72.3267 92.7488C73.2635 94.2826 73.7319 96.072 73.7319 98.1171V183.09C73.7319 185.033 73.2115 186.772 72.1706 188.305C71.2338 189.839 69.9847 191.117 68.4234 192.14C66.862 193.162 65.0405 193.929 62.9587 194.441C60.981 194.952 58.9512 195.207 56.8695 195.207C54.8918 195.207 52.9141 194.952 50.9364 194.441C48.9587 193.929 47.1891 193.214 45.6278 192.293C44.1706 191.271 42.9735 189.993 42.0367 188.459C41.0999 186.925 40.6315 185.135 40.6315 183.09V98.1171ZM56.2449 181.403H58.1185V99.6509H44.8471V101.031H47.5014C49.6873 101.031 51.3527 101.492 52.4977 102.412C53.7468 103.23 54.6315 104.252 55.152 105.479C55.7765 106.706 56.0888 108.087 56.0888 109.621C56.1929 111.052 56.2449 112.382 56.2449 113.609V181.403Z" fill="white"/>
<path d="M15.9257 118.21C15.9257 120.971 16.8104 123.63 18.58 126.186C20.3495 128.64 22.3272 131.247 24.513 134.008C26.6989 136.667 28.6766 139.53 30.4461 142.598C32.2157 145.563 33.1004 148.989 33.1004 152.874V182.937C33.1004 184.982 32.58 186.772 31.5391 188.305C30.6023 189.839 29.3532 191.117 27.7919 192.14C26.2305 193.162 24.409 193.929 22.3272 194.441C20.3495 194.952 18.3197 195.207 16.2379 195.207C14.2602 195.207 12.2825 194.952 10.3048 194.441C8.32715 193.929 6.55763 193.162 4.99629 192.14C3.53904 191.117 2.34201 189.839 1.40521 188.305C0.468402 186.772 0 184.982 0 182.937V153.334C0 152.21 0.572491 151.647 1.71747 151.647H13.8959C15.0409 151.647 15.6134 152.21 15.6134 153.334V181.403H17.487V155.022C17.487 152.158 16.6023 149.449 14.8327 146.892C13.0632 144.336 11.0855 141.831 8.89964 139.377C6.71376 136.923 4.73607 134.468 2.96655 132.014C1.19703 129.458 0.312268 126.748 0.312268 123.885V98.2705C0.312268 96.2254 0.78067 94.436 1.71747 92.9022C2.75837 91.3683 4.05948 90.0902 5.62083 89.0676C7.18217 88.0451 8.95169 87.2782 10.9294 86.7669C13.0112 86.2556 15.093 86 17.1747 86C19.2565 86 21.2342 86.2556 23.1078 86.7669C25.0855 87.2782 26.803 88.0451 28.2603 89.0676C29.8216 90.0902 31.0707 91.3683 32.0075 92.9022C32.9443 94.436 33.4127 96.2254 33.4127 98.2705V119.284C33.4127 120.409 32.8402 120.971 31.6952 120.971H19.5168C18.3718 120.971 17.7993 120.409 17.7993 119.284V99.6509H4.52789V101.031H7.18217C9.36804 101.031 11.0335 101.492 12.1785 102.412C13.4275 103.23 14.3123 104.252 14.8327 105.479C15.4573 106.706 15.7695 108.087 15.7695 109.621C15.8736 111.052 15.9257 112.382 15.9257 113.609V118.21Z" fill="white"/>
<path d="M707.814 192.6C707.814 193.725 707.242 194.287 706.097 194.287H693.918C692.773 194.287 692.201 193.725 692.201 192.6V179.409C692.201 178.285 692.773 177.722 693.918 177.722H706.097C707.242 177.722 707.814 178.285 707.814 179.409V192.6ZM708.283 86.9204C709.428 86.9204 710 87.4828 710 88.6076C710 90.8572 709.896 93.8737 709.688 97.6571C709.584 101.441 709.427 105.633 709.219 110.234C709.011 114.734 708.751 119.488 708.439 124.499C708.23 129.509 708.022 134.315 707.814 138.917C707.606 143.518 707.398 147.813 707.19 151.801C707.085 155.686 707.033 158.856 707.033 161.31V166.679C707.033 167.803 706.461 168.366 705.316 168.366H693.138C691.993 168.366 691.42 167.803 691.42 166.679V161.31C691.42 158.856 691.316 155.686 691.108 151.801C691.004 147.813 690.848 143.518 690.639 138.917C690.431 134.315 690.171 129.509 689.859 124.499C689.651 119.488 689.442 114.734 689.234 110.234C689.026 105.633 688.818 101.441 688.61 97.6571C688.506 93.8737 688.453 90.8572 688.453 88.6076C688.453 87.4828 689.026 86.9204 690.171 86.9204H708.283Z" fill="white"/>
<path d="M663.748 118.21C663.748 120.971 664.632 123.63 666.402 126.186C668.171 128.64 670.149 131.247 672.335 134.008C674.521 136.667 676.498 139.53 678.268 142.598C680.037 145.563 680.922 148.989 680.922 152.874V182.937C680.922 184.982 680.402 186.772 679.361 188.305C678.424 189.839 677.175 191.117 675.614 192.14C674.052 193.162 672.231 193.929 670.149 194.441C668.171 194.952 666.142 195.207 664.06 195.207C662.082 195.207 660.104 194.952 658.127 194.441C656.149 193.929 654.379 193.162 652.818 192.14C651.361 191.117 650.164 189.839 649.227 188.305C648.29 186.772 647.822 184.982 647.822 182.937V153.334C647.822 152.21 648.394 151.647 649.539 151.647H661.718C662.863 151.647 663.435 152.21 663.435 153.334V181.403H665.309V155.022C665.309 152.158 664.424 149.449 662.655 146.892C660.885 144.336 658.907 141.831 656.721 139.377C654.536 136.923 652.558 134.468 650.788 132.014C649.019 129.458 648.134 126.748 648.134 123.885V98.2705C648.134 96.2254 648.602 94.436 649.539 92.9022C650.58 91.3683 651.881 90.0902 653.443 89.0676C655.004 88.0451 656.774 87.2782 658.751 86.7669C660.833 86.2556 662.915 86 664.997 86C667.078 86 669.056 86.2556 670.93 86.7669C672.907 87.2782 674.625 88.0451 676.082 89.0676C677.643 90.0902 678.892 91.3683 679.829 92.9022C680.766 94.436 681.235 96.2254 681.235 98.2705V119.284C681.235 120.409 680.662 120.971 679.517 120.971H667.339C666.194 120.971 665.621 120.409 665.621 119.284V99.6509H652.35V101.031H655.004C657.19 101.031 658.855 101.492 660 102.412C661.249 103.23 662.134 104.252 662.655 105.479C663.279 106.706 663.591 108.087 663.591 109.621C663.695 111.052 663.748 112.382 663.748 113.609V118.21Z" fill="white"/>
<path d="M624.749 144.132H626.623V99.8044H624.749V144.132ZM613.352 158.089V159.47H616.006C618.192 159.47 619.857 159.93 621.002 160.85C622.251 161.668 623.136 162.691 623.657 163.918C624.281 165.145 624.593 166.525 624.593 168.059C624.697 169.491 624.749 170.82 624.749 172.047V192.6C624.749 193.725 624.177 194.287 623.032 194.287H610.854C609.709 194.287 609.136 193.725 609.136 192.6L613.508 89.0677C613.508 88.5565 613.716 88.0963 614.132 87.6873C614.549 87.176 615.277 86.9204 616.318 86.9204H635.054C636.095 86.9204 636.824 87.176 637.24 87.6873C637.657 88.0963 637.865 88.5565 637.865 89.0677L642.237 192.6C642.237 193.725 641.664 194.287 640.519 194.287H628.341C627.196 194.287 626.623 193.725 626.623 192.6V158.089H613.352Z" fill="white"/>
<path d="M586.503 99.6511V101.031H589.157C591.343 101.031 593.008 101.492 594.153 102.412C595.402 103.23 596.287 104.253 596.808 105.48C597.432 106.707 597.744 108.087 597.744 109.621C597.848 111.052 597.901 112.382 597.901 113.609V192.6C597.901 193.725 597.328 194.287 596.183 194.287H584.005C582.86 194.287 582.287 193.725 582.287 192.6V99.6511H574.949C573.804 99.6511 573.231 99.0887 573.231 97.9639V88.6076C573.231 87.4828 573.804 86.9204 574.949 86.9204H605.239C606.384 86.9204 606.956 87.4828 606.956 88.6076V97.9639C606.956 99.0887 606.384 99.6511 605.239 99.6511H586.503Z" fill="white"/>
<path d="M550.087 118.21C550.087 120.971 550.972 123.63 552.741 126.186C554.511 128.64 556.488 131.247 558.674 134.008C560.86 136.667 562.838 139.53 564.607 142.598C566.377 145.563 567.262 148.989 567.262 152.874V182.937C567.262 184.982 566.741 186.772 565.7 188.305C564.763 189.839 563.514 191.117 561.953 192.14C560.392 193.162 558.57 193.929 556.488 194.441C554.511 194.952 552.481 195.207 550.399 195.207C548.421 195.207 546.444 194.952 544.466 194.441C542.488 193.929 540.719 193.162 539.157 192.14C537.7 191.117 536.503 189.839 535.566 188.305C534.63 186.772 534.161 184.982 534.161 182.937V153.334C534.161 152.21 534.734 151.647 535.879 151.647H548.057C549.202 151.647 549.775 152.21 549.775 153.334V181.403H551.648V155.022C551.648 152.158 550.763 149.449 548.994 146.892C547.224 144.336 545.247 141.831 543.061 139.377C540.875 136.923 538.897 134.468 537.128 132.014C535.358 129.458 534.473 126.748 534.473 123.885V98.2705C534.473 96.2254 534.942 94.436 535.879 92.9022C536.92 91.3683 538.221 90.0902 539.782 89.0676C541.343 88.0451 543.113 87.2782 545.091 86.7669C547.172 86.2556 549.254 86 551.336 86C553.418 86 555.395 86.2556 557.269 86.7669C559.247 87.2782 560.964 88.0451 562.421 89.0676C563.983 90.0902 565.232 91.3683 566.169 92.9022C567.105 94.436 567.574 96.2254 567.574 98.2705V119.284C567.574 120.409 567.001 120.971 565.856 120.971H553.678C552.533 120.971 551.96 120.409 551.96 119.284V99.6509H538.689V101.031H541.343C543.529 101.031 545.195 101.492 546.34 102.412C547.589 103.23 548.473 104.252 548.994 105.479C549.618 106.706 549.931 108.087 549.931 109.621C550.035 111.052 550.087 112.382 550.087 113.609V118.21Z" fill="white"/>
<path d="M511.369 88.6076C511.369 87.4828 511.942 86.9204 513.087 86.9204H525.265C526.41 86.9204 526.983 87.4828 526.983 88.6076V192.6C526.983 193.725 526.41 194.287 525.265 194.287H513.087C511.942 194.287 511.369 193.725 511.369 192.6V88.6076Z" fill="white"/>
<path d="M504.058 181.403C505.203 181.403 505.775 181.966 505.775 183.09V192.6C505.775 193.725 505.203 194.287 504.058 194.287H482.824C481.679 194.287 481.106 193.725 481.106 192.6V88.6076C481.106 87.4828 481.679 86.9204 482.824 86.9204H495.002C496.147 86.9204 496.72 87.4828 496.72 88.6076V167.446C496.72 168.673 496.668 170.053 496.563 171.587C496.563 173.018 496.251 174.348 495.627 175.575C495.106 176.802 494.221 177.876 492.972 178.796C491.827 179.614 490.162 180.023 487.976 180.023H485.322V181.403H504.058Z" fill="white"/>
<path d="M458.034 144.132H459.907V99.8044H458.034V144.132ZM446.636 158.089V159.47H449.29C451.476 159.47 453.141 159.93 454.286 160.85C455.535 161.668 456.42 162.691 456.941 163.918C457.565 165.145 457.877 166.525 457.877 168.059C457.982 169.491 458.034 170.82 458.034 172.047V192.6C458.034 193.725 457.461 194.287 456.316 194.287H444.138C442.993 194.287 442.42 193.725 442.42 192.6L446.792 89.0677C446.792 88.5565 447 88.0963 447.417 87.6873C447.833 87.176 448.561 86.9204 449.602 86.9204H468.338C469.379 86.9204 470.108 87.176 470.524 87.6873C470.941 88.0963 471.149 88.5565 471.149 89.0677L475.521 192.6C475.521 193.725 474.948 194.287 473.803 194.287H461.625C460.48 194.287 459.907 193.725 459.907 192.6V158.089H446.636Z" fill="white"/>
<path d="M421.19 88.6076C421.19 87.4828 421.762 86.9204 422.907 86.9204H435.086C436.231 86.9204 436.803 87.4828 436.803 88.6076V192.6C436.803 193.725 436.231 194.287 435.086 194.287H422.907C421.762 194.287 421.19 193.725 421.19 192.6V88.6076Z" fill="white"/>
<path d="M396.477 181.403H398.35V152.107C398.35 150.983 398.923 150.42 400.068 150.42H412.246C413.391 150.42 413.964 150.983 413.964 152.107V183.09C413.964 185.033 413.443 186.772 412.403 188.305C411.466 189.839 410.217 191.117 408.655 192.14C407.094 193.162 405.272 193.929 403.191 194.441C401.213 194.952 399.183 195.207 397.101 195.207C395.124 195.207 393.146 194.952 391.168 194.441C389.191 193.929 387.421 193.214 385.86 192.293C384.403 191.271 383.206 189.993 382.269 188.459C381.332 186.925 380.863 185.135 380.863 183.09V98.1171C380.863 96.072 381.332 94.3337 382.269 92.9022C383.31 91.3683 384.611 90.0902 386.172 89.0676C387.733 88.0451 389.503 87.2782 391.481 86.7669C393.562 86.2556 395.644 86 397.726 86C399.808 86 401.785 86.2556 403.659 86.7669C405.637 87.2782 407.354 88.0451 408.811 89.0676C410.373 89.9879 411.622 91.215 412.559 92.7488C413.496 94.2826 413.964 96.072 413.964 98.1171V123.732C413.964 124.857 413.391 125.419 412.246 125.419H400.068C398.923 125.419 398.35 124.857 398.35 123.732V99.8043H385.079V101.185H387.733C389.919 101.185 391.585 101.645 392.73 102.565C393.979 103.383 394.864 104.406 395.384 105.633C396.008 106.86 396.321 108.24 396.321 109.774C396.425 111.206 396.477 112.535 396.477 113.762V181.403Z" fill="white"/>
<path d="M365.451 99.8044V123.732H370.447C371.592 123.732 372.165 124.294 372.165 125.419V135.849C372.165 136.974 371.592 137.536 370.447 137.536H354.053V138.917H356.708C358.894 138.917 360.559 139.377 361.704 140.297C362.953 141.115 363.838 142.138 364.358 143.365C364.983 144.592 365.295 145.972 365.295 147.506C365.399 148.938 365.451 150.267 365.451 151.494V181.403H372.789C373.934 181.403 374.507 181.966 374.507 183.09V192.6C374.507 193.725 373.934 194.287 372.789 194.287H351.555C350.41 194.287 349.838 193.725 349.838 192.6V88.6076C349.838 87.4828 350.41 86.9204 351.555 86.9204H372.789C373.934 86.9204 374.507 87.4828 374.507 88.6076V98.1172C374.507 99.242 373.934 99.8044 372.789 99.8044H365.451Z" fill="white"/>
<path d="M342.612 145.819C342.612 147.864 342.091 149.653 341.05 151.187C340.114 152.721 338.864 153.999 337.303 155.022C335.742 155.942 333.92 156.658 331.838 157.169C329.861 157.68 327.831 157.936 325.749 157.936H325.125V192.6C325.125 193.725 324.552 194.287 323.407 194.287H311.229C310.084 194.287 309.511 193.725 309.511 192.6V88.6076C309.511 87.4828 310.084 86.9204 311.229 86.9204H325.749C327.831 86.9204 329.861 87.176 331.838 87.6873C333.92 88.1986 335.742 88.9655 337.303 89.988C338.864 90.9083 340.114 92.1354 341.05 93.6692C342.091 95.203 342.612 96.9925 342.612 99.0375V145.819ZM313.727 99.6511V101.031H316.381C318.567 101.031 320.232 101.492 321.377 102.412C322.627 103.23 323.511 104.253 324.032 105.48C324.656 106.707 324.969 108.087 324.969 109.621C325.073 111.052 325.125 112.382 325.125 113.609V145.052H326.998V99.6511H313.727Z" fill="white"/>
<path d="M284.806 118.21C284.806 120.971 285.69 123.63 287.46 126.186C289.229 128.64 291.207 131.247 293.393 134.008C295.579 136.667 297.556 139.53 299.326 142.598C301.096 145.563 301.98 148.989 301.98 152.874V182.937C301.98 184.982 301.46 186.772 300.419 188.305C299.482 189.839 298.233 191.117 296.672 192.14C295.11 193.162 293.289 193.929 291.207 194.441C289.229 194.952 287.2 195.207 285.118 195.207C283.14 195.207 281.162 194.952 279.185 194.441C277.207 193.929 275.438 193.162 273.876 192.14C272.419 191.117 271.222 189.839 270.285 188.305C269.348 186.772 268.88 184.982 268.88 182.937V153.334C268.88 152.21 269.452 151.647 270.597 151.647H282.776C283.921 151.647 284.493 152.21 284.493 153.334V181.403H286.367V155.022C286.367 152.158 285.482 149.449 283.713 146.892C281.943 144.336 279.965 141.831 277.78 139.377C275.594 136.923 273.616 134.468 271.846 132.014C270.077 129.458 269.192 126.748 269.192 123.885V98.2705C269.192 96.2254 269.661 94.436 270.597 92.9022C271.638 91.3683 272.939 90.0902 274.501 89.0676C276.062 88.0451 277.832 87.2782 279.809 86.7669C281.891 86.2556 283.973 86 286.055 86C288.136 86 290.114 86.2556 291.988 86.7669C293.965 87.2782 295.683 88.0451 297.14 89.0676C298.701 90.0902 299.951 91.3683 300.887 92.9022C301.824 94.436 302.293 96.2254 302.293 98.2705V119.284C302.293 120.409 301.72 120.971 300.575 120.971H288.397C287.252 120.971 286.679 120.409 286.679 119.284V99.6509H273.408V101.031H276.062C278.248 101.031 279.913 101.492 281.058 102.412C282.307 103.23 283.192 104.252 283.713 105.479C284.337 106.706 284.649 108.087 284.649 109.621C284.754 111.052 284.806 112.382 284.806 113.609V118.21Z" fill="white"/>
<path d="M253.468 99.8044V123.732H258.464C259.609 123.732 260.181 124.294 260.181 125.419V135.849C260.181 136.974 259.609 137.536 258.464 137.536H242.07V138.917H244.724C246.91 138.917 248.575 139.377 249.72 140.297C250.97 141.115 251.854 142.138 252.375 143.365C252.999 144.592 253.312 145.972 253.312 147.506C253.416 148.938 253.468 150.267 253.468 151.494V181.403H260.806C261.951 181.403 262.523 181.966 262.523 183.09V192.6C262.523 193.725 261.951 194.287 260.806 194.287H239.572C238.427 194.287 237.854 193.725 237.854 192.6V88.6076C237.854 87.4828 238.427 86.9204 239.572 86.9204H260.806C261.951 86.9204 262.523 87.4828 262.523 88.6076V98.1172C262.523 99.242 261.951 99.8044 260.806 99.8044H253.468Z" fill="white"/>
<path d="M157.854 32.4437C152.416 32.4135 149.778 29.634 149.257 25.8272L151.537 25.4043C152.09 28.5463 154.207 30.4799 157.952 30.4799C161.176 30.4799 162.804 29.2412 162.804 27.3379C162.804 25.4345 161.436 24.4979 157.463 23.8936C152.123 23.0477 150.365 21.1745 150.365 18.5763C150.365 15.6154 152.807 13.6516 157.073 13.6516C161.827 13.6516 163.813 16.1895 164.595 19.6035L162.283 20.0265C161.632 17.1865 160.329 15.5852 156.975 15.5852C154.337 15.5852 152.742 16.7333 152.742 18.5158C152.742 20.1171 153.751 21.235 158.31 21.96C163.683 22.8362 165.181 24.7396 165.181 27.2472C165.181 30.3289 162.836 32.4437 157.854 32.4437Z" fill="white"/>
<path d="M138.744 32.4435C132.622 32.4435 128.845 28.3649 128.845 23.0173C128.845 17.6395 132.72 13.6514 138.744 13.6514C144.801 13.6514 148.676 17.6395 148.676 23.0173C148.676 28.3649 144.866 32.4435 138.744 32.4435ZM138.744 30.4495C143.596 30.4495 146.299 27.2772 146.299 22.9871C146.299 18.848 143.563 15.6757 138.744 15.6757C133.957 15.6757 131.189 18.848 131.189 22.9871C131.189 27.2772 133.892 30.4495 138.744 30.4495ZM135.781 12.6544L135.39 11.2949L143.368 9.33105L143.791 10.8719L135.781 12.6544Z" fill="white"/>
<path d="M123.994 32.111L117.09 22.4129C115.723 20.4793 114.192 18.0925 113.085 16.2495H113.02C113.052 18.2436 113.085 20.8418 113.085 22.8358V32.111H110.806V13.9836H114.062L120.054 22.5035C121.714 24.9205 123.31 27.3677 124.482 29.2107H124.547C124.515 27.3375 124.482 25.132 124.482 23.2588V13.9836H126.794V32.111H123.994Z" fill="white"/>
<path d="M90.167 32.111V13.9836H103.258V16.0683H92.5116V21.8388H102.15V23.8933H92.5116V30.0264H103.29V32.111H90.167Z" fill="white"/>
<path d="M79.7584 15.9474H74.3854V22.2618H79.6933C82.396 22.2618 84.0568 21.1137 84.0568 19.1197C84.0568 17.1861 82.9822 15.9474 79.7584 15.9474ZM84.7732 32.111L78.6512 24.2256H74.3854V32.111H72.0408V13.9836H79.9212C84.4476 13.9836 86.4014 16.0683 86.4014 19.0895C86.4014 21.8993 84.5778 23.712 81.2238 24.135L87.6388 32.0506V32.111H84.7732Z" fill="white"/>
<path d="M63.4592 23.8933H57.4675V30.1775H63.622C66.4876 30.1775 67.725 28.7575 67.725 27.0354C67.725 25.1622 66.3899 23.8933 63.4592 23.8933ZM62.9382 15.9172H57.4675V22.1107H62.7428C65.1199 22.1107 66.7481 21.2346 66.7481 18.9082C66.7481 17.0351 65.5433 15.9172 62.9382 15.9172ZM55.1229 32.111V13.9836H62.8405C67.0086 13.9836 69.0927 15.7057 69.0927 18.6061C69.0927 20.6908 68.1158 22.1712 66.1945 22.8358V22.8963C68.8322 23.4401 70.1022 24.8903 70.1022 27.2166C70.1022 29.966 68.1809 32.111 63.7197 32.111H55.1229Z" fill="white"/>
<path d="M43.1518 32.4437C37.0298 32.4437 33.2524 28.3651 33.2524 23.0175C33.2524 17.6397 37.1275 13.6516 43.1518 13.6516C49.2086 13.6516 53.0837 17.6397 53.0837 23.0175C53.0837 28.3651 49.2738 32.4437 43.1518 32.4437ZM43.1518 30.4497C48.0038 30.4497 50.7066 27.2774 50.7066 22.9873C50.7066 18.8482 47.9712 15.6759 43.1518 15.6759C38.3649 15.6759 35.597 18.8482 35.597 22.9873C35.597 27.2774 38.2998 30.4497 43.1518 30.4497Z" fill="white"/>
<path d="M25.0237 32.4434C19.5856 32.4132 16.9479 29.6337 16.4269 25.8269L18.7063 25.4039C19.2599 28.546 21.3766 30.4796 25.1214 30.4796C28.3452 30.4796 29.9734 29.2409 29.9734 27.3375C29.9734 25.4341 28.6057 24.4976 24.6329 23.8933C19.2925 23.0474 17.534 21.1742 17.534 18.5759C17.534 15.6151 19.9763 13.6513 24.2422 13.6513C28.9965 13.6513 30.9828 16.1891 31.7644 19.6031L29.4524 20.0261C28.8011 17.1862 27.4985 15.5849 24.1445 15.5849C21.5068 15.5849 19.9112 16.733 19.9112 18.5155C19.9112 20.1168 20.9207 21.2346 25.4796 21.9597C30.8526 22.8359 32.3505 24.7393 32.3505 27.2469C32.3505 30.3285 30.0059 32.4434 25.0237 32.4434Z" fill="white"/>
<path fill-rule="evenodd" clip-rule="evenodd" d="M159.693 1.89373H23.3946C11.5976 1.89373 2.03431 10.7962 2.03431 21.778C2.03431 32.7597 11.5976 41.6622 23.3946 41.6622H159.693C171.49 41.6622 181.054 32.7597 181.054 21.778C181.054 10.7962 171.49 1.89373 159.693 1.89373ZM23.3946 0C10.4741 0 0 9.75032 0 21.778C0 33.8056 10.4741 43.5559 23.3946 43.5559H159.693C172.614 43.5559 183.088 33.8056 183.088 21.778C183.088 9.75032 172.614 0 159.693 0H23.3946Z" fill="white"/>
</svg>
