<svg width="726" height="92" viewBox="0 0 726 92" fill="none" xmlns="http://www.w3.org/2000/svg">
<path d="M724.148 89.4317C724.148 90.3753 723.662 90.8472 722.692 90.8472H712.371C711.401 90.8472 710.915 90.3753 710.915 89.4317V78.3655C710.915 77.4219 711.401 76.9501 712.371 76.9501H722.692C723.662 76.9501 724.148 77.4219 724.148 78.3655V89.4317ZM724.544 0.773682C725.515 0.773682 726 1.2455 726 2.18913C726 4.07638 725.912 6.60701 725.735 9.78103C725.647 12.955 725.515 16.4722 725.338 20.3325C725.162 24.107 724.941 28.096 724.677 32.2994C724.5 36.5028 724.324 40.5347 724.148 44.395C723.971 48.2553 723.795 51.8582 723.618 55.2038C723.53 58.4636 723.486 61.1229 723.486 63.1817V67.6854C723.486 68.629 723.001 69.1008 722.03 69.1008H711.709C710.739 69.1008 710.254 68.629 710.254 67.6854V63.1817C710.254 61.1229 710.166 58.4636 709.989 55.2038C709.901 51.8582 709.769 48.2553 709.592 44.395C709.416 40.5347 709.195 36.5028 708.93 32.2994C708.754 28.096 708.578 24.107 708.401 20.3325C708.225 16.4722 708.048 12.955 707.872 9.78103C707.784 6.60701 707.74 4.07638 707.74 2.18913C707.74 1.2455 708.225 0.773682 709.195 0.773682H724.544Z" fill="white"/>
<path d="M697.324 11.5825V31.656H701.559C702.529 31.656 703.014 32.1278 703.014 33.0715V41.8214C703.014 42.7651 702.529 43.2369 701.559 43.2369H687.665V44.395H689.914C691.767 44.395 693.178 44.781 694.149 45.5531C695.207 46.2393 695.957 47.0972 696.398 48.1266C696.927 49.156 697.192 50.3141 697.192 51.6009C697.28 52.8018 697.324 53.917 697.324 54.9464V80.0383H703.544C704.514 80.0383 704.999 80.5101 704.999 81.4538V89.4317C704.999 90.3753 704.514 90.8472 703.544 90.8472H685.548C684.577 90.8472 684.092 90.3753 684.092 89.4317V2.18913C684.092 1.2455 684.577 0.773682 685.548 0.773682H703.544C704.514 0.773682 704.999 1.2455 704.999 2.18913V10.1671C704.999 11.1107 704.514 11.5825 703.544 11.5825H697.324Z" fill="white"/>
<path d="M680.615 80.6817C680.615 82.3974 680.174 83.8986 679.292 85.1854C678.498 86.4722 677.439 87.5445 676.116 88.4023C674.793 89.1744 673.249 89.7748 671.485 90.2038C669.808 90.6327 668.088 90.8472 666.324 90.8472H654.018C653.048 90.8472 652.563 90.3753 652.563 89.4317V2.18913C652.563 1.2455 653.048 0.773682 654.018 0.773682H666.324C668.088 0.773682 669.808 0.988142 671.485 1.41706C673.249 1.84598 674.793 2.48937 676.116 3.34721C677.439 4.11927 678.498 5.14868 679.292 6.43545C680.174 7.72221 680.615 9.22343 680.615 10.9391V80.6817ZM656.135 11.5825V12.7406H658.385C660.237 12.7406 661.649 13.1266 662.619 13.8987C663.678 14.5849 664.427 15.4428 664.868 16.4722C665.398 17.5016 665.662 18.6597 665.662 19.9465C665.751 21.1474 665.795 22.2626 665.795 23.292V80.0383H667.383V11.5825H656.135Z" fill="white"/>
<path d="M635.655 48.77H637.243V11.5825H635.655V48.77ZM625.996 60.4795V61.6376H628.245C630.098 61.6376 631.509 62.0236 632.48 62.7957C633.538 63.482 634.288 64.3398 634.729 65.3692C635.258 66.3986 635.523 67.5567 635.523 68.8435C635.611 70.0445 635.655 71.1597 635.655 72.1891V89.4317C635.655 90.3753 635.17 90.8472 634.2 90.8472H623.879C622.908 90.8472 622.423 90.3753 622.423 89.4317L626.128 2.57515C626.128 2.14623 626.305 1.7602 626.657 1.41706C627.01 0.988142 627.628 0.773682 628.51 0.773682H644.389C645.271 0.773682 645.888 0.988142 646.241 1.41706C646.594 1.7602 646.77 2.14623 646.77 2.57515L650.475 89.4317C650.475 90.3753 649.99 90.8472 649.02 90.8472H638.699C637.728 90.8472 637.243 90.3753 637.243 89.4317V60.4795H625.996Z" fill="white"/>
<path d="M620.269 80.6817C620.269 82.3974 619.828 83.8986 618.946 85.1854C618.152 86.4722 617.093 87.5445 615.77 88.4023C614.447 89.1744 612.903 89.7748 611.139 90.2038C609.463 90.6327 607.742 90.8472 605.978 90.8472H593.672C592.702 90.8472 592.217 90.3753 592.217 89.4317V2.18913C592.217 1.2455 592.702 0.773682 593.672 0.773682H605.978C607.742 0.773682 609.463 0.988142 611.139 1.41706C612.903 1.84598 614.447 2.48937 615.77 3.34721C617.093 4.11927 618.152 5.14868 618.946 6.43545C619.828 7.72221 620.269 9.22343 620.269 10.9391V80.6817ZM595.789 11.5825V12.7406H598.039C599.891 12.7406 601.303 13.1266 602.273 13.8987C603.332 14.5849 604.082 15.4428 604.523 16.4722C605.052 17.5016 605.317 18.6597 605.317 19.9465C605.405 21.1474 605.449 22.2626 605.449 23.292V80.0383H607.037V11.5825H595.789Z" fill="white"/>
<path d="M573.919 30.6266H575.507V11.4538H573.919V30.6266ZM564.26 41.3067V42.4648H566.509C568.362 42.4648 569.773 42.8509 570.743 43.6229C571.802 44.3092 572.552 45.167 572.993 46.1964C573.522 47.2259 573.787 48.3839 573.787 49.6707C573.875 50.8717 573.919 51.9869 573.919 53.0163V89.4317C573.919 90.3753 573.434 90.8472 572.464 90.8472H562.143C561.172 90.8472 560.687 90.3753 560.687 89.4317V2.18913C560.687 1.2455 561.172 0.773682 562.143 0.773682H574.448C576.213 0.773682 577.933 0.988142 579.609 1.41706C581.373 1.84598 582.917 2.48937 584.24 3.34721C585.563 4.11927 586.622 5.14868 587.416 6.43545C588.298 7.72221 588.739 9.22343 588.739 10.9391V29.0825C588.739 29.9403 588.43 30.7553 587.813 31.5273L584.108 35.9023L587.813 40.2773C588.43 41.0494 588.739 41.8643 588.739 42.7222V89.4317C588.739 90.3753 588.254 90.8472 587.284 90.8472H576.963C575.992 90.8472 575.507 90.3753 575.507 89.4317V41.3067H564.26Z" fill="white"/>
<path d="M550.272 11.5825V31.656H554.506C555.476 31.656 555.961 32.1278 555.961 33.0715V41.8214C555.961 42.7651 555.476 43.2369 554.506 43.2369H540.612V44.395H542.862C544.714 44.395 546.126 44.781 547.096 45.5531C548.155 46.2393 548.904 47.0972 549.345 48.1266C549.875 49.156 550.139 50.3141 550.139 51.6009C550.228 52.8018 550.272 53.917 550.272 54.9464V80.0383H556.491C557.461 80.0383 557.946 80.5101 557.946 81.4538V89.4317C557.946 90.3753 557.461 90.8472 556.491 90.8472H538.495C537.525 90.8472 537.039 90.3753 537.039 89.4317V2.18913C537.039 1.2455 537.525 0.773682 538.495 0.773682H556.491C557.461 0.773682 557.946 1.2455 557.946 2.18913V10.1671C557.946 11.1107 557.461 11.5825 556.491 11.5825H550.272Z" fill="white"/>
<path d="M529.13 78.8802C527.277 78.8802 525.822 78.5371 524.763 77.8508C523.793 77.0788 523.043 76.178 522.514 75.1486C522.073 74.1192 521.808 73.004 521.72 71.803C521.72 70.5163 521.72 69.3582 521.72 68.3288V2.18913C521.72 1.2455 522.205 0.773682 523.176 0.773682H533.497C534.467 0.773682 534.952 1.2455 534.952 2.18913L531.247 89.0457C531.247 89.4746 531.071 89.9035 530.718 90.3324C530.365 90.6756 529.748 90.8472 528.865 90.8472H512.987C512.105 90.8472 511.487 90.6756 511.134 90.3324C510.781 89.9035 510.605 89.4746 510.605 89.0457L506.9 2.18913C506.9 1.2455 507.385 0.773682 508.355 0.773682H518.677C519.647 0.773682 520.132 1.2455 520.132 2.18913V80.0383H529.13V78.8802Z" fill="white"/>
<path d="M483.723 11.5825V31.656H487.958C488.928 31.656 489.413 32.1278 489.413 33.0715V41.8214C489.413 42.7651 488.928 43.2369 487.958 43.2369H474.064V44.395H476.313C478.166 44.395 479.577 44.781 480.548 45.5531C481.606 46.2393 482.356 47.0972 482.797 48.1266C483.326 49.156 483.591 50.3141 483.591 51.6009C483.679 52.8018 483.723 53.917 483.723 54.9464V80.0383H489.942C490.913 80.0383 491.398 80.5101 491.398 81.4538V89.4317C491.398 90.3753 490.913 90.8472 489.942 90.8472H471.947C470.976 90.8472 470.491 90.3753 470.491 89.4317V2.18913C470.491 1.2455 470.976 0.773682 471.947 0.773682H489.942C490.913 0.773682 491.398 1.2455 491.398 2.18913V10.1671C491.398 11.1107 490.913 11.5825 489.942 11.5825H483.723Z" fill="white"/>
<path d="M467.014 80.6817C467.014 82.3974 466.573 83.8986 465.69 85.1854C464.896 86.4722 463.838 87.5445 462.515 88.4023C461.191 89.1744 459.648 89.7748 457.883 90.2038C456.207 90.6327 454.487 90.8472 452.723 90.8472H440.417C439.447 90.8472 438.961 90.3753 438.961 89.4317V2.18913C438.961 1.2455 439.447 0.773682 440.417 0.773682H452.723C454.487 0.773682 456.207 0.988142 457.883 1.41706C459.648 1.84598 461.191 2.48937 462.515 3.34721C463.838 4.11927 464.896 5.14868 465.69 6.43545C466.573 7.72221 467.014 9.22343 467.014 10.9391V80.6817ZM442.534 11.5825V12.7406H444.784C446.636 12.7406 448.048 13.1266 449.018 13.8987C450.076 14.5849 450.826 15.4428 451.267 16.4722C451.797 17.5016 452.061 18.6597 452.061 19.9465C452.15 21.1474 452.194 22.2626 452.194 23.292V80.0383H453.781V11.5825H442.534Z" fill="white"/>
<path d="M414.461 11.5825V31.656H418.696C419.666 31.656 420.151 32.1278 420.151 33.0715V41.8214C420.151 42.7651 419.666 43.2369 418.696 43.2369H404.802V44.395H407.051C408.904 44.395 410.315 44.781 411.286 45.5531C412.344 46.2393 413.094 47.0972 413.535 48.1266C414.064 49.156 414.329 50.3141 414.329 51.6009C414.417 52.8018 414.461 53.917 414.461 54.9464V80.0383H420.681C421.651 80.0383 422.136 80.5101 422.136 81.4538V89.4317C422.136 90.3753 421.651 90.8472 420.681 90.8472H402.685C401.714 90.8472 401.229 90.3753 401.229 89.4317V2.18913C401.229 1.2455 401.714 0.773682 402.685 0.773682H420.681C421.651 0.773682 422.136 1.2455 422.136 2.18913V10.1671C422.136 11.1107 421.651 11.5825 420.681 11.5825H414.461Z" fill="white"/>
<path d="M384.52 11.4532H373.272V12.6112H375.522C377.374 12.6112 378.786 12.9973 379.756 13.7693C380.815 14.4556 381.564 15.3135 382.005 16.3429C382.535 17.3723 382.799 18.5304 382.799 19.8171C382.888 21.0181 382.932 22.1333 382.932 23.1627V89.4311C382.932 90.3747 382.446 90.8465 381.476 90.8465H371.155C370.185 90.8465 369.699 90.3747 369.699 89.4311V2.18846C369.699 1.24483 370.185 0.77302 371.155 0.77302H379.756C380.373 0.77302 380.859 1.24483 381.211 2.18846L382.932 6.56346C383.726 4.59042 384.652 3.0463 385.71 1.93111C386.857 0.730128 388.621 0.129639 391.003 0.129639C392.679 0.129639 394.223 0.644345 395.635 1.67376C397.046 2.70317 397.752 4.33307 397.752 6.56346V89.4311C397.752 90.3747 397.266 90.8465 396.296 90.8465H385.975C385.005 90.8465 384.52 90.3747 384.52 89.4311V11.4532Z" fill="white"/>
<path d="M338.17 10.1654C338.17 8.44975 338.567 6.99142 339.361 5.79044C340.243 4.50367 341.345 3.43137 342.669 2.57353C343.992 1.71568 345.491 1.0723 347.168 0.643381C348.932 0.21446 350.696 0 352.46 0C354.225 0 355.901 0.21446 357.489 0.643381C359.165 1.0723 360.62 1.71568 361.855 2.57353C363.178 3.34558 364.237 4.37499 365.031 5.66176C365.825 6.94852 366.222 8.44975 366.222 10.1654V81.4521C366.222 83.082 365.781 84.5404 364.899 85.8271C364.105 87.1139 363.046 88.1862 361.723 89.0441C360.4 89.9019 358.856 90.5453 357.092 90.9742C355.416 91.4031 353.695 91.6176 351.931 91.6176C350.255 91.6176 348.579 91.4031 346.903 90.9742C345.227 90.5453 343.727 89.9448 342.404 89.1727C341.169 88.3149 340.154 87.2426 339.361 85.9558C338.567 84.6691 338.17 83.1678 338.17 81.4521V10.1654ZM351.402 80.0367H352.99V11.4522H341.742V12.6103H343.992C345.844 12.6103 347.256 12.9963 348.226 13.7684C349.285 14.4546 350.034 15.3125 350.476 16.3419C351.005 17.3713 351.269 18.5294 351.269 19.8162C351.358 21.0171 351.402 22.1323 351.402 23.1617V80.0367Z" fill="white"/>
<path d="M307.375 11.4532H296.127V12.6112H298.377C300.229 12.6112 301.641 12.9973 302.611 13.7693C303.67 14.4556 304.42 15.3135 304.861 16.3429C305.39 17.3723 305.655 18.5304 305.655 19.8171C305.743 21.0181 305.787 22.1333 305.787 23.1627V89.4311C305.787 90.3747 305.302 90.8465 304.331 90.8465H294.01C293.04 90.8465 292.555 90.3747 292.555 89.4311V2.18846C292.555 1.24483 293.04 0.77302 294.01 0.77302H302.611C303.229 0.77302 303.714 1.24483 304.067 2.18846L305.787 6.56346C306.581 4.59042 307.507 3.0463 308.566 1.93111C309.712 0.730128 311.477 0.129639 313.858 0.129639C315.535 0.129639 317.078 0.644345 318.49 1.67376C319.901 2.70317 320.607 4.33307 320.607 6.56346V89.4311C320.607 90.3747 320.122 90.8465 319.151 90.8465H308.83C307.86 90.8465 307.375 90.3747 307.375 89.4311V11.4532Z" fill="white"/>
<path d="M275.885 2.18913C275.885 1.2455 276.37 0.773682 277.341 0.773682H287.662C288.632 0.773682 289.117 1.2455 289.117 2.18913V89.4317C289.117 90.3753 288.632 90.8472 287.662 90.8472H277.341C276.37 90.8472 275.885 90.3753 275.885 89.4317V2.18913Z" fill="white"/>
<path d="M258.25 80.0383C259.221 80.0383 259.706 80.5101 259.706 81.4538V89.4317C259.706 90.3753 259.221 90.8472 258.25 90.8472H240.255C239.284 90.8472 238.799 90.3753 238.799 89.4317V2.18913C238.799 1.2455 239.284 0.773682 240.255 0.773682H250.576C251.546 0.773682 252.031 1.2455 252.031 2.18913V68.3288C252.031 69.3582 251.987 70.5163 251.899 71.803C251.899 73.004 251.634 74.1192 251.105 75.1486C250.664 76.178 249.914 77.0788 248.856 77.8508C247.885 78.5371 246.474 78.8802 244.621 78.8802H242.372V80.0383H258.25Z" fill="white"/>
<path d="M235.249 80.0383C236.219 80.0383 236.705 80.5101 236.705 81.4538V89.4317C236.705 90.3753 236.219 90.8472 235.249 90.8472H217.253C216.283 90.8472 215.798 90.3753 215.798 89.4317V2.18913C215.798 1.2455 216.283 0.773682 217.253 0.773682H227.574C228.545 0.773682 229.03 1.2455 229.03 2.18913V68.3288C229.03 69.3582 228.986 70.5163 228.898 71.803C228.898 73.004 228.633 74.1192 228.104 75.1486C227.663 76.178 226.913 77.0788 225.854 77.8508C224.884 78.5371 223.473 78.8802 221.62 78.8802H219.371V80.0383H235.249Z" fill="white"/>
<path d="M198.89 48.77H200.478V11.5825H198.89V48.77ZM189.231 60.4795V61.6376H191.48C193.333 61.6376 194.744 62.0236 195.715 62.7957C196.773 63.482 197.523 64.3398 197.964 65.3692C198.494 66.3986 198.758 67.5567 198.758 68.8435C198.846 70.0445 198.89 71.1597 198.89 72.1891V89.4317C198.89 90.3753 198.405 90.8472 197.435 90.8472H187.114C186.144 90.8472 185.658 90.3753 185.658 89.4317L189.363 2.57515C189.363 2.14623 189.54 1.7602 189.893 1.41706C190.245 0.988142 190.863 0.773682 191.745 0.773682H207.624C208.506 0.773682 209.123 0.988142 209.476 1.41706C209.829 1.7602 210.006 2.14623 210.006 2.57515L213.711 89.4317C213.711 90.3753 213.225 90.8472 212.255 90.8472H201.934C200.964 90.8472 200.478 90.3753 200.478 89.4317V60.4795H189.231Z" fill="white"/>
<path d="M154.605 27.022C154.605 29.3382 155.355 31.5686 156.855 33.7132C158.354 35.772 160.031 37.9595 161.883 40.2757C163.736 42.5061 165.412 44.9081 166.911 47.4816C168.411 49.9693 169.161 52.8431 169.161 56.1029V81.3235C169.161 83.0392 168.72 84.5404 167.838 85.8271C167.044 87.1139 165.985 88.1862 164.662 89.0441C163.339 89.9019 161.795 90.5453 160.031 90.9742C158.354 91.4031 156.634 91.6176 154.87 91.6176C153.194 91.6176 151.518 91.4031 149.842 90.9742C148.166 90.5453 146.666 89.9019 145.343 89.0441C144.108 88.1862 143.093 87.1139 142.299 85.8271C141.506 84.5404 141.109 83.0392 141.109 81.3235V56.4889C141.109 55.5453 141.594 55.0735 142.564 55.0735H152.885C153.856 55.0735 154.341 55.5453 154.341 56.4889V80.0367H155.929V57.9044C155.929 55.5024 155.179 53.2291 153.679 51.0845C152.179 48.9399 150.503 46.8382 148.651 44.7794C146.798 42.7206 145.122 40.6617 143.623 38.6029C142.123 36.4583 141.373 34.185 141.373 31.7831V10.2941C141.373 8.57842 141.77 7.0772 142.564 5.79044C143.446 4.50367 144.549 3.43137 145.872 2.57353C147.195 1.71568 148.695 1.0723 150.371 0.643381C152.135 0.21446 153.9 0 155.664 0C157.428 0 159.104 0.21446 160.692 0.643381C162.368 1.0723 163.824 1.71568 165.059 2.57353C166.382 3.43137 167.441 4.50367 168.235 5.79044C169.028 7.0772 169.425 8.57842 169.425 10.2941V27.9228C169.425 28.8664 168.94 29.3382 167.97 29.3382H157.649C156.678 29.3382 156.193 28.8664 156.193 27.9228V11.4522H144.946V12.6103H147.195C149.048 12.6103 150.459 12.9963 151.43 13.7684C152.488 14.4546 153.238 15.3125 153.679 16.3419C154.208 17.3713 154.473 18.5294 154.473 19.8162C154.561 21.0171 154.605 22.1323 154.605 23.1617V27.022Z" fill="white"/>
<path d="M109.579 10.1654C109.579 8.44975 109.976 6.99142 110.77 5.79044C111.652 4.50367 112.755 3.43137 114.078 2.57353C115.401 1.71568 116.901 1.0723 118.577 0.643381C120.341 0.21446 122.105 0 123.87 0C125.634 0 127.31 0.21446 128.898 0.643381C130.574 1.0723 132.029 1.71568 133.264 2.57353C134.588 3.34558 135.646 4.37499 136.44 5.66176C137.234 6.94852 137.631 8.44975 137.631 10.1654V81.4521C137.631 83.082 137.19 84.5404 136.308 85.8271C135.514 87.1139 134.455 88.1862 133.132 89.0441C131.809 89.9019 130.265 90.5453 128.501 90.9742C126.825 91.4031 125.105 91.6176 123.34 91.6176C121.664 91.6176 119.988 91.4031 118.312 90.9742C116.636 90.5453 115.136 89.9448 113.813 89.1727C112.578 88.3149 111.564 87.2426 110.77 85.9558C109.976 84.6691 109.579 83.1678 109.579 81.4521V10.1654ZM122.811 80.0367H124.399V11.4522H113.152V12.6103H115.401C117.254 12.6103 118.665 12.9963 119.635 13.7684C120.694 14.4546 121.444 15.3125 121.885 16.3419C122.414 17.3713 122.679 18.5294 122.679 19.8162C122.767 21.0171 122.811 22.1323 122.811 23.1617V80.0367Z" fill="white"/>
<path d="M66.8906 11.4532V12.6112H69.14C70.9925 12.6112 72.404 12.9973 73.3743 13.7693C74.4329 14.4556 75.1827 15.3135 75.6238 16.3429C76.1531 17.3723 76.4177 18.5304 76.4177 19.8171C76.5059 21.0181 76.55 22.1333 76.55 23.1627V89.4311C76.55 90.3747 76.0649 90.8465 75.0945 90.8465H64.7734C63.803 90.8465 63.3179 90.3747 63.3179 89.4311V2.18846C63.3179 1.24483 63.803 0.77302 64.7734 0.77302H73.3743C73.9918 0.77302 74.477 1.24483 74.8299 2.18846L76.55 6.56346C77.344 4.59042 78.2702 3.0463 79.3288 1.93111C80.4756 0.730128 82.2399 0.129639 84.6217 0.129639C86.2977 0.129639 87.8415 0.644345 89.2529 1.67376C90.6643 2.70317 91.3701 4.33307 91.3701 6.56346C92.164 4.59042 93.0902 3.0463 94.1488 1.93111C95.2956 0.730128 97.0599 0.129639 99.4417 0.129639C101.118 0.129639 102.661 0.687237 104.073 1.80243C105.484 2.83185 106.19 4.46175 106.19 6.69213V89.4311C106.19 90.3747 105.705 90.8465 104.735 90.8465H94.4135C93.4431 90.8465 92.9579 90.3747 92.9579 89.4311V11.4532H91.3701V89.4311C91.3701 90.3747 90.8849 90.8465 89.9145 90.8465H79.5934C78.6231 90.8465 78.1379 90.3747 78.1379 89.4311V11.4532H66.8906Z" fill="white"/>
<path d="M31.7881 10.1654C31.7881 8.44975 32.1851 6.99142 32.979 5.79044C33.8612 4.50367 34.9639 3.43137 36.2871 2.57353C37.6103 1.71568 39.1099 1.0723 40.786 0.643381C42.5503 0.21446 44.3146 0 46.0789 0C47.8432 0 49.5192 0.21446 51.1071 0.643381C52.7832 1.0723 54.2387 1.71568 55.4737 2.57353C56.7969 3.34558 57.8555 4.37499 58.6494 5.66176C59.4434 6.94852 59.8403 8.44975 59.8403 10.1654V81.4521C59.8403 83.082 59.3993 84.5404 58.5171 85.8271C57.7232 87.1139 56.6646 88.1862 55.3414 89.0441C54.0182 89.9019 52.4744 90.5453 50.7101 90.9742C49.0341 91.4031 47.3139 91.6176 45.5496 91.6176C43.8735 91.6176 42.1974 91.4031 40.5214 90.9742C38.8453 90.5453 37.3457 89.9448 36.0224 89.1727C34.7874 88.3149 33.773 87.2426 32.979 85.9558C32.1851 84.6691 31.7881 83.1678 31.7881 81.4521V10.1654ZM45.0203 80.0367H46.6082V11.4522H35.3608V12.6103H37.6103C39.4628 12.6103 40.8742 12.9963 41.8446 13.7684C42.9032 14.4546 43.653 15.3125 44.0941 16.3419C44.6233 17.3713 44.888 18.5294 44.888 19.8162C44.9762 21.0171 45.0203 22.1323 45.0203 23.1617V80.0367Z" fill="white"/>
<path d="M13.4968 27.022C13.4968 29.3382 14.2466 31.5686 15.7463 33.7132C17.2459 35.772 18.922 37.9595 20.7745 40.2757C22.627 42.5061 24.3031 44.9081 25.8027 47.4816C27.3024 49.9693 28.0522 52.8431 28.0522 56.1029V81.3235C28.0522 83.0392 27.6111 84.5404 26.729 85.8271C25.935 87.1139 24.8765 88.1862 23.5532 89.0441C22.23 89.9019 20.6863 90.5453 18.922 90.9742C17.2459 91.4031 15.5257 91.6176 13.7614 91.6176C12.0854 91.6176 10.4093 91.4031 8.73323 90.9742C7.05715 90.5453 5.55751 89.9019 4.23429 89.0441C2.99929 88.1862 1.98482 87.1139 1.19089 85.8271C0.396965 84.5404 0 83.0392 0 81.3235V56.4889C0 55.5453 0.485179 55.0735 1.45554 55.0735H11.7766C12.747 55.0735 13.2322 55.5453 13.2322 56.4889V80.0367H14.82V57.9044C14.82 55.5024 14.0702 53.2291 12.5706 51.0845C11.0709 48.9399 9.39483 46.8382 7.54233 44.7794C5.68983 42.7206 4.01376 40.6617 2.51411 38.6029C1.01447 36.4583 0.264643 34.185 0.264643 31.7831V10.2941C0.264643 8.57842 0.661608 7.0772 1.45554 5.79044C2.33768 4.50367 3.44036 3.43137 4.76358 2.57353C6.08679 1.71568 7.58644 1.0723 9.26251 0.643381C11.0268 0.21446 12.7911 0 14.5554 0C16.3197 0 17.9957 0.21446 19.5836 0.643381C21.2597 1.0723 22.7152 1.71568 23.9502 2.57353C25.2734 3.43137 26.332 4.50367 27.1259 5.79044C27.9199 7.0772 28.3168 8.57842 28.3168 10.2941V27.9228C28.3168 28.8664 27.8316 29.3382 26.8613 29.3382H16.5402C15.5698 29.3382 15.0847 28.8664 15.0847 27.9228V11.4522H3.83733V12.6103H6.08679C7.9393 12.6103 9.35073 12.9963 10.3211 13.7684C11.3797 14.4546 12.1295 15.3125 12.5706 16.3419C13.0998 17.3713 13.3645 18.5294 13.3645 19.8162C13.4527 21.0171 13.4968 22.1323 13.4968 23.1617V27.022Z" fill="white"/>
</svg>
